<svg width="59" height="59" viewBox="0 0 59 59" fill="none" xmlns="http://www.w3.org/2000/svg">
<circle cx="29.5" cy="29.5" r="29.5" fill="#F9E7FF"/>
<path fill-rule="evenodd" clip-rule="evenodd" d="M28.4763 15.201C29.1363 14.9536 29.8637 14.9536 30.5238 15.201L40.7321 19.0292C41.2882 19.2376 41.7674 19.6108 42.1056 20.0989C42.4439 20.587 42.6251 21.1668 42.625 21.7606V29.5817C42.6251 32.0192 41.9463 34.4085 40.6649 36.482C39.3835 38.5555 37.5499 40.2312 35.3698 41.3213L30.4785 43.7654C30.1747 43.9174 29.8397 43.9965 29.5 43.9965C29.1603 43.9965 28.8253 43.9174 28.5215 43.7654L23.6302 41.3198C21.4501 40.2297 19.6165 38.554 18.3351 36.4805C17.0537 34.4071 16.3749 32.0177 16.375 29.5802V21.7621C16.3746 21.168 16.5557 20.5879 16.894 20.0995C17.2323 19.6111 17.7116 19.2377 18.2679 19.0292L28.4763 15.201ZM30.9583 29.1092C31.5143 28.7881 31.9489 28.2926 32.1946 27.6994C32.4402 27.1063 32.4833 26.4486 32.3172 25.8284C32.151 25.2083 31.7848 24.6603 31.2755 24.2694C30.7661 23.8786 30.142 23.6667 29.5 23.6667C28.858 23.6667 28.2339 23.8786 27.7245 24.2694C27.2152 24.6603 26.849 25.2083 26.6828 25.8284C26.5167 26.4486 26.5598 27.1063 26.8055 27.6994C27.0511 28.2926 27.4857 28.7881 28.0417 29.1092V33.875C28.0417 34.2618 28.1953 34.6327 28.4688 34.9062C28.7423 35.1797 29.1132 35.3333 29.5 35.3333C29.8868 35.3333 30.2577 35.1797 30.5312 34.9062C30.8047 34.6327 30.9583 34.2618 30.9583 33.875V29.1092Z" fill="#810EA7"/>
</svg>
