<svg width="74" height="60" viewBox="0 0 74 60" fill="none" xmlns="http://www.w3.org/2000/svg">
<path d="M5.0625 8.90274C9.10031 7.21461 14.8901 5.39418 20.5203 4.82843C26.5884 4.21705 31.7349 5.11586 34.7188 8.25943V52.7255C30.4528 50.3074 25.0463 49.9744 20.0594 50.4762C14.6757 51.0237 9.24631 52.5795 5.0625 54.1764V8.90274ZM39.2812 8.25943C42.2651 5.11586 47.4116 4.21705 53.4798 4.82843C59.1099 5.39418 64.8997 7.21461 68.9375 8.90274V54.1764C64.7491 52.5795 59.3243 51.0192 53.9406 50.4808C48.9492 49.9744 43.5472 50.3029 39.2812 52.7255V8.25943ZM37 4.13493C32.5059 0.27049 25.9907 -0.304385 20.0594 0.28874C13.1518 0.986803 6.18031 3.35474 1.83681 5.3303C1.43827 5.51156 1.10031 5.80367 0.863271 6.17178C0.626229 6.53988 0.500121 6.96842 0.5 7.40624L0.5 57.5937C0.500106 57.9754 0.595982 58.351 0.778847 58.686C0.961712 59.0211 1.22572 59.3049 1.54669 59.5114C1.86765 59.718 2.23532 59.8407 2.61601 59.8684C2.9967 59.896 3.37824 59.8277 3.72569 59.6697C7.74981 57.8447 14.2331 55.6501 20.5157 55.0159C26.9443 54.368 32.3326 55.4129 35.2206 59.0172C35.4344 59.2837 35.7052 59.4987 36.0132 59.6465C36.3212 59.7942 36.6584 59.8709 37 59.8709C37.3416 59.8709 37.6788 59.7942 37.9868 59.6465C38.2948 59.4987 38.5656 59.2837 38.7794 59.0172C41.6674 55.4129 47.0558 54.368 53.4798 55.0159C59.7669 55.6501 66.2548 57.8447 70.2743 59.6697C70.6218 59.8277 71.0033 59.896 71.384 59.8684C71.7647 59.8407 72.1323 59.718 72.4533 59.5114C72.7743 59.3049 73.0383 59.0211 73.2212 58.686C73.404 58.351 73.4999 57.9754 73.5 57.5937V7.40624C73.4999 6.96842 73.3738 6.53988 73.1367 6.17178C72.8997 5.80367 72.5617 5.51156 72.1632 5.3303C67.8197 3.35474 60.8482 0.986803 53.9406 0.28874C48.0093 -0.308947 41.4941 0.27049 37 4.13493Z" fill="#810EA7"/>
</svg>
