<svg width="113" height="95" viewBox="0 0 113 95" fill="none" xmlns="http://www.w3.org/2000/svg">
<path d="M43.9 6.34363C35.432 2.30066 23.5961 0.320194 7.75001 0.249881C6.25556 0.229577 4.79044 0.665354 3.55001 1.4991C2.53186 2.18729 1.69841 3.11513 1.12299 4.20101C0.547558 5.28688 0.247777 6.49753 0.250012 7.72644V74.7811C0.250012 79.3139 3.47501 82.7335 7.75001 82.7335C24.407 82.7335 41.1156 84.2897 51.1234 93.7491C51.2603 93.8791 51.4324 93.966 51.6183 93.999C51.8042 94.032 51.9957 94.0097 52.169 93.9348C52.3422 93.8598 52.4897 93.7357 52.593 93.5777C52.6963 93.4196 52.7509 93.2348 52.75 93.046V14.0358C52.7504 13.5027 52.6364 12.9758 52.4156 12.4906C52.1948 12.0054 51.8725 11.5732 51.4703 11.2233C49.1779 9.26356 46.6315 7.62218 43.9 6.34363ZM109.45 1.49207C108.209 0.660398 106.744 0.227054 105.25 0.249881C89.4039 0.320194 77.568 2.29129 69.1 6.34363C66.3687 7.61986 63.8216 9.25801 61.5274 11.2139C61.1261 11.5645 60.8045 11.9968 60.5842 12.4819C60.3639 12.967 60.2499 13.4936 60.25 14.0264V93.0413C60.2499 93.2227 60.3034 93.4001 60.4037 93.5512C60.504 93.7024 60.6467 93.8205 60.814 93.8909C60.9812 93.9612 61.1654 93.9806 61.3436 93.9466C61.5218 93.9127 61.686 93.8268 61.8156 93.6999C67.832 87.7233 78.3906 82.7264 105.259 82.7288C107.249 82.7288 109.156 81.9386 110.563 80.5321C111.969 79.1256 112.759 77.2179 112.759 75.2288V7.72879C112.762 6.49744 112.462 5.28436 111.884 4.19665C111.307 3.10895 110.471 2.18008 109.45 1.49207Z" fill="#810EA7"/>
</svg>
