<svg width="25" height="30" viewBox="0 0 25 30" fill="none" xmlns="http://www.w3.org/2000/svg">
<path d="M8.95243 0.00905176C8.78753 0.0339476 8.63006 0.0953824 8.49117 0.188997C8.49117 0.188997 7.05399 1.10718 5.50888 2.10034C3.96377 3.09235 2.24483 4.18587 1.85173 4.40734C1.82749 4.41803 1.80361 4.42957 1.78016 4.44194C0.353204 5.33591 0.0566793 6.79623 0.00555432 7.61522C0.00214599 7.65328 0.00555432 7.68443 0.00555432 7.7248C-0.0069429 8.03163 0.00555432 8.22888 0.00555432 8.22888V23.297C0.00555432 25.4864 2.51977 26.5395 4.9056 26.5395C5.70088 26.5395 6.49616 26.4092 7.17782 26.1785C7.63227 25.9478 7.95833 25.4864 7.95833 25.025V12.9132C7.95833 10.2602 8.52639 9.01441 10.2306 7.97626C10.685 7.74556 15.4498 4.40619 15.4498 4.40619C15.6771 4.17549 15.9111 3.70717 15.9111 3.36112V3.25269C15.9111 2.79129 15.6839 2.43832 15.3431 2.20762C15.0022 1.97692 14.5478 1.97692 14.2069 2.20762C14.0933 2.32297 7.16305 7.06039 5.68611 7.86783C4.20917 8.79063 2.83106 9.01326 2.49023 8.55186C2.38457 8.44458 2.29255 8.11584 2.27778 7.79516V7.72249C2.27891 7.40874 2.35844 6.81815 2.98785 6.42481C3.62634 6.06376 5.21122 5.036 6.75178 4.0463C7.40277 3.62758 7.48344 3.58259 7.99355 3.25269C8.0607 3.53448 8.22991 3.78027 8.46748 3.94112C8.70505 4.10197 8.99357 4.16609 9.27561 4.12072C9.55764 4.07534 9.8125 3.9238 9.98946 3.69626C10.1664 3.46872 10.2525 3.18186 10.2306 2.8928V1.16255C10.2318 0.998136 10.1985 0.835346 10.1327 0.685093C10.0669 0.53484 9.9703 0.400597 9.84927 0.291363C9.72823 0.182129 9.5856 0.100428 9.43092 0.0517384C9.27624 0.00304841 9.1131 -0.0115057 8.95243 0.00905176ZM18.0413 4.0463C17.8607 4.0768 17.6899 4.1512 17.5437 4.26315C17.5437 4.26315 11.8245 8.17005 10.8338 8.84023C10.8218 8.85227 10.8101 8.86458 10.7986 8.87714C9.97607 9.50349 9.48867 10.2487 9.27168 10.9304C9.15009 11.315 9.09025 11.7169 9.09444 12.1208V12.4818C9.0928 12.5176 9.0928 12.5534 9.09444 12.5891V26.5395C9.09444 28.7312 11.5803 30 13.8525 30C14.875 30 15.7975 29.7762 16.4792 29.3148C17.8425 28.5074 24.4319 23.2959 24.4319 23.2959C24.7728 23.0652 25 22.7399 25 22.3938V7.39836C25 6.82161 24.7796 6.47556 24.3251 6.24486C23.9843 6.01416 23.4242 6.12259 23.0834 6.35329C21.2656 7.73749 16.3724 11.6455 15.2363 12.3376C13.6457 13.2604 12.1472 13.4911 11.5791 12.9144C11.3519 12.6837 11.3667 12.4668 11.3667 12.1208C11.3735 11.9224 11.3951 11.7517 11.4382 11.6155C11.5019 11.4148 11.6314 11.168 12.112 10.7873C12.1347 10.7689 12.1233 10.77 12.1472 10.7516C12.9686 10.1944 15.4805 8.45612 17.1188 7.32569C17.2116 7.5785 17.3888 7.79028 17.6195 7.92419C17.8502 8.0581 18.1198 8.10567 18.3815 8.05863C18.6431 8.01158 18.8803 7.8729 19.0516 7.6667C19.223 7.4605 19.3178 7.19984 19.3194 6.93004V5.19979C19.3207 5.03538 19.2874 4.87259 19.2216 4.72234C19.1558 4.57208 19.0592 4.43784 18.9382 4.32861C18.8171 4.21937 18.6745 4.13767 18.5198 4.08898C18.3651 4.04029 18.202 4.02574 18.0413 4.0463ZM22.7278 12.4818V14.7888L17.0472 19.2575V16.9505L22.7278 12.4818Z" fill="#810EA7"/>
</svg>
