<svg width="24" height="24" viewBox="0 0 24 24" fill="none" xmlns="http://www.w3.org/2000/svg">
<path d="M5 16.0002L4 20.0002L8 19.0002L19.586 7.41419C19.9609 7.03913 20.1716 6.53051 20.1716 6.00019C20.1716 5.46986 19.9609 4.96124 19.586 4.58619L19.414 4.41419C19.0389 4.03924 18.5303 3.82861 18 3.82861C17.4697 3.82861 16.9611 4.03924 16.586 4.41419L5 16.0002Z" fill="#810EA7" stroke="#810EA7" stroke-width="2" stroke-linecap="round" stroke-linejoin="round"/>
<path d="M5.45148 16.2556L15 6.70711L17.2929 9L7.74437 18.5485L4.68718 19.3128L5.45148 16.2556Z" fill="#810EA7" stroke="#810EA7"/>
<path d="M15 6L18 9L15 6ZM13 20H21H13Z" fill="#810EA7"/>
<path d="M15 6L18 9M13 20H21" stroke="#810EA7" stroke-width="2" stroke-linecap="round" stroke-linejoin="round"/>
</svg>
