<svg width="24" height="22" viewBox="0 0 24 22" fill="none" xmlns="http://www.w3.org/2000/svg">
<path d="M13.4956 19.6271C17.4326 17.1071 19.4006 14.0701 19.4006 10.5201C19.4006 9.41507 19.2076 8.86307 18.8236 8.86307L18.4276 8.97007C18.1156 9.09007 17.8646 9.15007 17.6716 9.15007C16.5446 9.15007 15.6016 8.74007 14.8466 7.92007C14.0906 7.10007 13.7126 6.09007 13.7126 4.88407C13.7126 3.72707 14.1226 2.74407 14.9376 1.93707C15.7536 1.13007 16.7376 0.72707 17.8896 0.72707C19.4976 0.72707 20.8246 1.38707 21.8696 2.71007C22.9126 4.03007 23.4336 5.69007 23.4336 7.68707C23.4336 9.94707 22.9916 12.0141 22.1036 13.8901C21.2136 15.7651 19.8596 17.4601 18.0356 18.9751C16.2116 20.4891 15.0476 21.2471 14.5436 21.2471C14.2076 21.2471 13.9316 21.0851 13.7156 20.7611C13.4996 20.4381 13.3916 20.1561 13.3916 19.9161L13.4986 19.6281L13.4956 19.6271ZM0.535593 19.6271C4.47259 17.1071 6.43959 14.0711 6.43959 10.5191C6.43959 9.41407 6.24659 8.86207 5.86259 8.86207L5.46659 8.96907C5.15459 9.08907 4.90359 9.14907 4.71059 9.14907C3.60759 9.14907 2.67059 8.73907 1.90359 7.91907C1.13359 7.09907 0.751593 6.08907 0.751593 4.88307C0.751593 3.72607 1.16159 2.74307 1.97659 1.93607C2.79259 1.12907 3.77659 0.72607 4.92859 0.72607C6.53659 0.72607 7.86359 1.38607 8.90859 2.70907C9.95159 4.02907 10.4726 5.68907 10.4726 7.68607C10.4726 9.97007 10.0246 12.0561 9.12259 13.9421C8.22259 15.8291 6.86759 17.5191 5.05559 19.0091C3.24059 20.5001 2.08359 21.2461 1.58059 21.2461C1.24359 21.2461 0.967592 21.0841 0.750593 20.7601C0.535593 20.4361 0.427593 20.1541 0.427593 19.9141L0.535593 19.6271Z" fill="#810EA7"/>
</svg>
