<svg width="103" height="89" viewBox="0 0 103 89" fill="none" xmlns="http://www.w3.org/2000/svg">
<path d="M23.6948 0V33.8156L34.8983 38.0718V34.713C31.7467 34.2645 28.5872 33.5094 26.1414 30.9707L28.0319 29.1671C29.7335 30.933 32.0977 31.5737 34.7933 32.0074L31.1258 1.6771C28.6952 1.21635 26.2013 0.710989 23.6948 0ZM79.3097 0.00418212C70.1819 2.42879 59.9341 0.0184027 52.5305 9.87633V38.9867C55.3027 34.9229 58.8945 33.2896 62.4344 32.5C67.1839 31.4401 71.7025 31.5014 75.2484 28.6487L76.8939 30.6743C72.5167 34.1962 67.3359 34.0739 63.0075 35.0397C58.9049 35.9551 55.4482 37.4975 52.8893 43.8486L79.3096 33.8157L79.3097 0.00418212ZM33.6681 0.875492L37.5063 32.6828L37.5147 32.7612V63L40.3072 57.524L43.1736 62.8432V35.3841L39.2353 2.02144L33.6681 0.875492ZM42.1366 4.25617L45.7207 34.6171C46.3198 34.9443 46.8907 35.3203 47.4276 35.7411C48.3312 36.4517 49.1658 37.3248 49.9134 38.3857V9.27073C47.7433 6.83455 45.0957 5.32168 42.1366 4.25617ZM18.5 4.37411V37.8063L34.8984 43.8051V41.03L21.1171 35.9895V4.37411H18.5ZM81.883 4.37829V35.9894L51.5022 47.0989L45.7912 45.012V50.3486C49.0416 51.468 53.9247 51.2984 57.87 49.9959V47.5474L84.5 37.8062V4.37843L81.883 4.37829ZM45.7909 37.7713V42.2064L49.6511 43.6744C48.6652 40.7681 47.3312 38.9818 45.8085 37.7843C45.8029 37.7801 45.7966 37.7758 45.7909 37.7713Z" fill="white"/>
<path d="M70.9412 16.3548C70.7056 16.0445 70.4187 15.7757 70.1523 15.5068C69.4657 14.8863 68.687 14.4417 68.0312 13.7902C66.5045 12.2804 66.1663 9.78812 67.1398 7.875C66.1663 8.11285 65.3159 8.65059 64.5884 9.24004C61.9345 11.391 60.8894 15.1862 62.1394 18.4437C62.1804 18.5471 62.2214 18.6505 62.2214 18.785C62.2214 19.0125 62.0677 19.2193 61.8628 19.302C61.6271 19.4054 61.3812 19.3434 61.1865 19.1779C61.128 19.1291 61.0793 19.0694 61.0431 19.0021C59.8852 17.5233 59.7008 15.4034 60.4795 13.7074C58.7683 15.1138 57.8359 17.4923 57.9691 19.7364C58.0306 20.2534 58.092 20.7705 58.2662 21.2875C58.4097 21.908 58.6863 22.5285 58.9937 23.0766C60.1004 24.8656 62.0165 26.1479 64.076 26.4064C66.2688 26.6856 68.6153 26.2823 70.2957 24.7518C72.1708 23.0352 72.8266 20.2844 71.8634 17.9267L71.7302 17.6578C71.515 17.1821 70.9412 16.3548 70.9412 16.3548ZM67.7033 22.8697C67.4164 23.1179 66.9451 23.3868 66.5762 23.4902C65.4286 23.9039 64.281 23.3248 63.6047 22.6422C64.824 22.3527 65.5515 21.4427 65.7667 20.5223C65.9409 19.695 65.613 19.0125 65.4798 18.2162C65.3569 17.451 65.3773 16.7995 65.654 16.0859C65.8487 16.4789 66.0536 16.8718 66.2995 17.1821C67.0885 18.2162 68.3284 18.6712 68.5948 20.0776C68.6358 20.2224 68.6563 20.3672 68.6563 20.5223C68.687 21.3703 68.3181 22.301 67.7033 22.8697Z" fill="#810EA7"/>
<path d="M16.784 71.72L14.016 83H10.16L8.608 76.088L7.024 83H3.168L0.432 71.72H3.824L5.136 79.432L6.912 71.72H10.352L12.08 79.368L13.392 71.72H16.784ZM17.6028 78.504C17.6028 77.576 17.7681 76.7653 18.0988 76.072C18.4401 75.3787 18.8988 74.8453 19.4748 74.472C20.0614 74.0987 20.7121 73.912 21.4268 73.912C22.0454 73.912 22.5788 74.0347 23.0268 74.28C23.4748 74.5253 23.8214 74.856 24.0668 75.272V74.024H27.2028V83H24.0668V81.752C23.8214 82.168 23.4694 82.4987 23.0108 82.744C22.5628 82.9893 22.0348 83.112 21.4268 83.112C20.7121 83.112 20.0614 82.9253 19.4748 82.552C18.8988 82.1787 18.4401 81.6453 18.0988 80.952C17.7681 80.248 17.6028 79.432 17.6028 78.504ZM24.0668 78.504C24.0668 77.928 23.9068 77.4747 23.5868 77.144C23.2774 76.8133 22.8934 76.648 22.4348 76.648C21.9654 76.648 21.5761 76.8133 21.2668 77.144C20.9574 77.464 20.8028 77.9173 20.8028 78.504C20.8028 79.08 20.9574 79.5387 21.2668 79.88C21.5761 80.2107 21.9654 80.376 22.4348 80.376C22.8934 80.376 23.2774 80.2107 23.5868 79.88C23.9068 79.5493 24.0668 79.0907 24.0668 78.504ZM32.1258 75.608C32.4778 75.096 32.9044 74.6907 33.4058 74.392C33.9071 74.0933 34.4458 73.944 35.0218 73.944V77.288H34.1418C33.4591 77.288 32.9524 77.4213 32.6218 77.688C32.2911 77.9547 32.1258 78.4187 32.1258 79.08V83H28.9898V74.024H32.1258V75.608ZM47.874 73.944C49.0047 73.944 49.89 74.2853 50.53 74.968C51.1807 75.6507 51.506 76.584 51.506 77.768V83H48.37V78.184C48.37 77.704 48.2367 77.3307 47.97 77.064C47.7033 76.7973 47.3407 76.664 46.882 76.664C46.4233 76.664 46.0607 76.7973 45.794 77.064C45.5273 77.3307 45.394 77.704 45.394 78.184V83H42.258V78.184C42.258 77.704 42.1247 77.3307 41.858 77.064C41.602 76.7973 41.2447 76.664 40.786 76.664C40.3167 76.664 39.9487 76.7973 39.682 77.064C39.4153 77.3307 39.282 77.704 39.282 78.184V83H36.146V74.024H39.282V75.208C39.5593 74.824 39.9167 74.52 40.354 74.296C40.802 74.0613 41.314 73.944 41.89 73.944C42.5513 73.944 43.138 74.088 43.65 74.376C44.1727 74.664 44.5833 75.0693 44.882 75.592C45.202 75.1013 45.6233 74.7067 46.146 74.408C46.6687 74.0987 47.2447 73.944 47.874 73.944ZM60.4241 77.208C61.0855 77.3573 61.6081 77.688 61.9921 78.2C62.3868 78.7013 62.5841 79.2773 62.5841 79.928C62.5841 80.888 62.2535 81.64 61.5921 82.184C60.9308 82.728 60.0028 83 58.8081 83H53.2241V71.72H58.6321C59.7841 71.72 60.6855 71.976 61.3361 72.488C61.9975 73 62.3281 73.72 62.3281 74.648C62.3281 75.3093 62.1521 75.864 61.8001 76.312C61.4588 76.7493 61.0001 77.048 60.4241 77.208ZM56.3601 76.2H57.9441C58.7335 76.2 59.1281 75.8747 59.1281 75.224C59.1281 74.552 58.7335 74.216 57.9441 74.216H56.3601V76.2ZM58.1841 80.472C58.9735 80.472 59.3681 80.1413 59.3681 79.48C59.3681 79.1387 59.2615 78.8773 59.0481 78.696C58.8455 78.5147 58.5521 78.424 58.1681 78.424H56.3601V80.472H58.1841ZM68.1345 83.112C67.2385 83.112 66.4332 82.9253 65.7185 82.552C65.0145 82.1787 64.4598 81.6453 64.0545 80.952C63.6492 80.2587 63.4465 79.4427 63.4465 78.504C63.4465 77.576 63.6492 76.7653 64.0545 76.072C64.4705 75.3787 65.0305 74.8453 65.7345 74.472C66.4492 74.0987 67.2545 73.912 68.1505 73.912C69.0465 73.912 69.8465 74.0987 70.5505 74.472C71.2652 74.8453 71.8252 75.3787 72.2305 76.072C72.6465 76.7653 72.8545 77.576 72.8545 78.504C72.8545 79.432 72.6465 80.248 72.2305 80.952C71.8252 81.6453 71.2652 82.1787 70.5505 82.552C69.8358 82.9253 69.0305 83.112 68.1345 83.112ZM68.1345 80.392C68.5718 80.392 68.9345 80.232 69.2225 79.912C69.5212 79.5813 69.6705 79.112 69.6705 78.504C69.6705 77.896 69.5212 77.432 69.2225 77.112C68.9345 76.792 68.5772 76.632 68.1505 76.632C67.7238 76.632 67.3665 76.792 67.0785 77.112C66.7905 77.432 66.6465 77.896 66.6465 78.504C66.6465 79.1227 66.7852 79.592 67.0625 79.912C67.3398 80.232 67.6972 80.392 68.1345 80.392ZM78.3064 83.112C77.4104 83.112 76.605 82.9253 75.8904 82.552C75.1864 82.1787 74.6317 81.6453 74.2264 80.952C73.821 80.2587 73.6184 79.4427 73.6184 78.504C73.6184 77.576 73.821 76.7653 74.2264 76.072C74.6424 75.3787 75.2024 74.8453 75.9064 74.472C76.621 74.0987 77.4264 73.912 78.3224 73.912C79.2184 73.912 80.0184 74.0987 80.7224 74.472C81.437 74.8453 81.997 75.3787 82.4024 76.072C82.8184 76.7653 83.0264 77.576 83.0264 78.504C83.0264 79.432 82.8184 80.248 82.4024 80.952C81.997 81.6453 81.437 82.1787 80.7224 82.552C80.0077 82.9253 79.2024 83.112 78.3064 83.112ZM78.3064 80.392C78.7437 80.392 79.1064 80.232 79.3944 79.912C79.693 79.5813 79.8424 79.112 79.8424 78.504C79.8424 77.896 79.693 77.432 79.3944 77.112C79.1064 76.792 78.749 76.632 78.3224 76.632C77.8957 76.632 77.5384 76.792 77.2504 77.112C76.9624 77.432 76.8184 77.896 76.8184 78.504C76.8184 79.1227 76.957 79.592 77.2344 79.912C77.5117 80.232 77.869 80.392 78.3064 80.392ZM89.9183 83L87.4383 79.32V83H84.3023V71.16H87.4383V77.544L89.9183 74.024H93.6783L90.1423 78.536L93.7423 83H89.9183ZM98.4856 83.112C97.675 83.112 96.9496 82.9787 96.3096 82.712C95.6803 82.4347 95.179 82.0613 94.8056 81.592C94.443 81.112 94.2403 80.5733 94.1976 79.976H97.2376C97.2803 80.264 97.4136 80.488 97.6376 80.648C97.8616 80.808 98.139 80.888 98.4696 80.888C98.7256 80.888 98.9283 80.8347 99.0776 80.728C99.227 80.6213 99.3016 80.4827 99.3016 80.312C99.3016 80.088 99.179 79.9227 98.9336 79.816C98.6883 79.7093 98.283 79.592 97.7176 79.464C97.0776 79.336 96.5443 79.192 96.1176 79.032C95.691 78.872 95.3176 78.6107 94.9976 78.248C94.6883 77.8853 94.5336 77.3947 94.5336 76.776C94.5336 76.2427 94.6776 75.7627 94.9656 75.336C95.2536 74.8987 95.675 74.552 96.2296 74.296C96.795 74.04 97.4723 73.912 98.2616 73.912C99.435 73.912 100.358 74.2 101.03 74.776C101.702 75.352 102.091 76.1093 102.198 77.048H99.3656C99.3123 76.76 99.1843 76.5413 98.9816 76.392C98.7896 76.232 98.5283 76.152 98.1976 76.152C97.9416 76.152 97.7443 76.2 97.6056 76.296C97.4776 76.392 97.4136 76.5253 97.4136 76.696C97.4136 76.9093 97.5363 77.0747 97.7816 77.192C98.027 77.2987 98.4216 77.4107 98.9656 77.528C99.6163 77.6667 100.155 77.8213 100.582 77.992C101.019 78.1627 101.398 78.44 101.718 78.824C102.048 79.1973 102.214 79.7093 102.214 80.36C102.214 80.8827 102.059 81.352 101.75 81.768C101.451 82.184 101.019 82.5147 100.454 82.76C99.899 82.9947 99.243 83.112 98.4856 83.112Z" fill="white"/>
</svg>
