<svg width="121" height="120" viewBox="0 0 121 120" fill="none" xmlns="http://www.w3.org/2000/svg">
<path d="M47.9 17.3436C39.432 13.3007 27.5961 11.3202 11.75 11.2499C10.2556 11.2296 8.79044 11.6654 7.55001 12.4991C6.53186 13.1873 5.69841 14.1151 5.12299 15.201C4.54756 16.2869 4.24778 17.4975 4.25001 18.7264V85.7811C4.25001 90.3139 7.47501 93.7335 11.75 93.7335C28.407 93.7335 45.1156 95.2897 55.1234 104.749C55.2603 104.879 55.4324 104.966 55.6183 104.999C55.8042 105.032 55.9957 105.01 56.169 104.935C56.3422 104.86 56.4897 104.736 56.593 104.578C56.6963 104.42 56.7509 104.235 56.75 104.046V25.0358C56.7504 24.5027 56.6364 23.9758 56.4156 23.4906C56.1948 23.0054 55.8725 22.5732 55.4703 22.2233C53.1779 20.2636 50.6315 18.6222 47.9 17.3436ZM113.45 12.4921C112.209 11.6604 110.744 11.2271 109.25 11.2499C93.4039 11.3202 81.568 13.2913 73.1 17.3436C70.3687 18.6199 67.8216 20.258 65.5274 22.2139C65.1261 22.5645 64.8045 22.9968 64.5842 23.4819C64.3639 23.967 64.2499 24.4936 64.25 25.0264V104.041C64.2499 104.223 64.3034 104.4 64.4037 104.551C64.504 104.702 64.6467 104.821 64.814 104.891C64.9812 104.961 65.1654 104.981 65.3436 104.947C65.5218 104.913 65.686 104.827 65.8156 104.7C71.832 98.7233 82.3906 93.7264 109.259 93.7288C111.249 93.7288 113.156 92.9386 114.563 91.5321C115.969 90.1256 116.759 88.2179 116.759 86.2288V18.7288C116.762 17.4974 116.462 16.2844 115.884 15.1967C115.307 14.1089 114.471 13.1801 113.45 12.4921Z" fill="#810EA7"/>
</svg>
