<svg width="140" height="30" viewBox="0 0 140 30" fill="none" xmlns="http://www.w3.org/2000/svg">
<path d="M2.51868 0V16.1027L7.95069 18.1294V16.53C6.42266 16.3164 4.89077 15.9569 3.7049 14.7479L4.62155 13.8891C5.44653 14.73 6.59282 15.0351 7.89976 15.2416L6.1216 0.798617C4.94312 0.579213 3.73396 0.338566 2.51868 0ZM29.4835 0.00199148C25.0579 1.15657 20.0892 0.00876331 16.4996 4.70301V18.5651C17.8437 16.63 19.5852 15.8522 21.3015 15.4762C23.6043 14.9715 25.7952 15.0007 27.5144 13.6422L28.3122 14.6068C26.1899 16.2839 23.678 16.2257 21.5794 16.6856C19.5902 17.1215 17.9143 17.856 16.6736 20.8803L29.4834 16.1027L29.4835 0.00199148ZM7.35425 0.416901L9.21519 15.5632L9.21926 15.6006V30L10.5732 27.3924L11.963 29.9253V16.8496L10.0535 0.96259L7.35425 0.416901ZM11.4602 2.02675L13.1979 16.4843C13.4884 16.6401 13.7652 16.8192 14.0255 17.0196C14.4636 17.3579 14.8683 17.7737 15.2307 18.2789V4.41463C14.1785 3.25455 12.8949 2.53413 11.4602 2.02675ZM0 2.08291V18.003L7.95076 20.8596V19.5381L1.26892 17.1379V2.08291H0ZM30.7311 2.0849V17.1378L16.0011 22.4281L13.2321 21.4343V23.9755C14.808 24.5086 17.1756 24.4278 19.0885 23.8076V22.6416L32 18.0029V2.08497L30.7311 2.0849ZM13.232 17.9863V20.0983L15.1035 20.7973C14.6255 19.4134 13.9788 18.5628 13.2405 17.9925C13.2378 17.9905 13.2347 17.9885 13.232 17.9863Z" fill="#810EA7"/>
<path d="M25.335 8.10012C25.22 7.95011 25.08 7.82011 24.95 7.6901C24.6151 7.3901 24.2352 7.17509 23.9152 6.86008C23.1704 6.13006 23.0054 4.92503 23.4803 4C23.0054 4.115 22.5905 4.37501 22.2355 4.66002C20.9408 5.70005 20.4309 7.5351 21.0408 9.11015C21.0608 9.16015 21.0807 9.21015 21.0807 9.27515C21.0807 9.38515 21.0058 9.48516 20.9058 9.52516C20.7908 9.57516 20.6708 9.54516 20.5758 9.46516C20.5473 9.44155 20.5235 9.4127 20.5059 9.38015C19.941 8.66513 19.851 7.6401 20.2309 6.82008C19.3961 7.5001 18.9411 8.65013 19.0061 9.73516C19.0361 9.98517 19.0661 10.2352 19.1511 10.4852C19.2211 10.7852 19.3561 11.0852 19.506 11.3502C20.0459 12.2152 20.9808 12.8353 21.9856 12.9603C23.0554 13.0953 24.2002 12.9003 25.02 12.1602C25.9349 11.3302 26.2548 10.0002 25.7849 8.86014L25.7199 8.73013C25.6149 8.50013 25.335 8.10012 25.335 8.10012ZM23.7553 11.2502C23.6153 11.3702 23.3853 11.5002 23.2054 11.5502C22.6455 11.7502 22.0856 11.4702 21.7556 11.1402C22.3505 11.0002 22.7055 10.5602 22.8104 10.1152C22.8954 9.71516 22.7354 9.38515 22.6705 9.00014C22.6105 8.63013 22.6205 8.31512 22.7554 7.97011C22.8504 8.16012 22.9504 8.35012 23.0704 8.50013C23.4553 9.00014 24.0602 9.22015 24.1902 9.90017C24.2102 9.97017 24.2202 10.0402 24.2202 10.1152C24.2352 10.5252 24.0552 10.9752 23.7553 11.2502Z" fill="white"/>
<path d="M53.784 9.72L51.016 21H47.16L45.608 14.088L44.024 21H40.168L37.432 9.72H40.824L42.136 17.432L43.912 9.72H47.352L49.08 17.368L50.392 9.72H53.784ZM54.6028 16.504C54.6028 15.576 54.7681 14.7653 55.0988 14.072C55.4401 13.3787 55.8988 12.8453 56.4748 12.472C57.0614 12.0987 57.7121 11.912 58.4268 11.912C59.0454 11.912 59.5788 12.0347 60.0268 12.28C60.4748 12.5253 60.8214 12.856 61.0668 13.272V12.024H64.2028V21H61.0668V19.752C60.8214 20.168 60.4694 20.4987 60.0108 20.744C59.5628 20.9893 59.0348 21.112 58.4268 21.112C57.7121 21.112 57.0614 20.9253 56.4748 20.552C55.8988 20.1787 55.4401 19.6453 55.0988 18.952C54.7681 18.248 54.6028 17.432 54.6028 16.504ZM61.0668 16.504C61.0668 15.928 60.9068 15.4747 60.5868 15.144C60.2774 14.8133 59.8934 14.648 59.4348 14.648C58.9654 14.648 58.5761 14.8133 58.2668 15.144C57.9574 15.464 57.8028 15.9173 57.8028 16.504C57.8028 17.08 57.9574 17.5387 58.2668 17.88C58.5761 18.2107 58.9654 18.376 59.4348 18.376C59.8934 18.376 60.2774 18.2107 60.5868 17.88C60.9068 17.5493 61.0668 17.0907 61.0668 16.504ZM69.1258 13.608C69.4778 13.096 69.9044 12.6907 70.4058 12.392C70.9071 12.0933 71.4458 11.944 72.0218 11.944V15.288H71.1418C70.4591 15.288 69.9524 15.4213 69.6218 15.688C69.2911 15.9547 69.1258 16.4187 69.1258 17.08V21H65.9898V12.024H69.1258V13.608ZM84.874 11.944C86.0047 11.944 86.89 12.2853 87.53 12.968C88.1807 13.6507 88.506 14.584 88.506 15.768V21H85.37V16.184C85.37 15.704 85.2367 15.3307 84.97 15.064C84.7033 14.7973 84.3407 14.664 83.882 14.664C83.4233 14.664 83.0607 14.7973 82.794 15.064C82.5273 15.3307 82.394 15.704 82.394 16.184V21H79.258V16.184C79.258 15.704 79.1247 15.3307 78.858 15.064C78.602 14.7973 78.2447 14.664 77.786 14.664C77.3167 14.664 76.9487 14.7973 76.682 15.064C76.4153 15.3307 76.282 15.704 76.282 16.184V21H73.146V12.024H76.282V13.208C76.5593 12.824 76.9167 12.52 77.354 12.296C77.802 12.0613 78.314 11.944 78.89 11.944C79.5513 11.944 80.138 12.088 80.65 12.376C81.1727 12.664 81.5833 13.0693 81.882 13.592C82.202 13.1013 82.6233 12.7067 83.146 12.408C83.6687 12.0987 84.2447 11.944 84.874 11.944ZM97.4241 15.208C98.0855 15.3573 98.6081 15.688 98.9921 16.2C99.3868 16.7013 99.5841 17.2773 99.5841 17.928C99.5841 18.888 99.2535 19.64 98.5921 20.184C97.9308 20.728 97.0028 21 95.8081 21H90.2241V9.72H95.6321C96.7841 9.72 97.6855 9.976 98.3361 10.488C98.9975 11 99.3281 11.72 99.3281 12.648C99.3281 13.3093 99.1521 13.864 98.8001 14.312C98.4588 14.7493 98.0001 15.048 97.4241 15.208ZM93.3601 14.2H94.9441C95.7335 14.2 96.1281 13.8747 96.1281 13.224C96.1281 12.552 95.7335 12.216 94.9441 12.216H93.3601V14.2ZM95.1841 18.472C95.9735 18.472 96.3681 18.1413 96.3681 17.48C96.3681 17.1387 96.2615 16.8773 96.0481 16.696C95.8455 16.5147 95.5521 16.424 95.1681 16.424H93.3601V18.472H95.1841ZM105.135 21.112C104.239 21.112 103.433 20.9253 102.719 20.552C102.015 20.1787 101.46 19.6453 101.055 18.952C100.649 18.2587 100.447 17.4427 100.447 16.504C100.447 15.576 100.649 14.7653 101.055 14.072C101.471 13.3787 102.031 12.8453 102.735 12.472C103.449 12.0987 104.255 11.912 105.151 11.912C106.047 11.912 106.847 12.0987 107.551 12.472C108.265 12.8453 108.825 13.3787 109.231 14.072C109.647 14.7653 109.855 15.576 109.855 16.504C109.855 17.432 109.647 18.248 109.231 18.952C108.825 19.6453 108.265 20.1787 107.551 20.552C106.836 20.9253 106.031 21.112 105.135 21.112ZM105.135 18.392C105.572 18.392 105.935 18.232 106.223 17.912C106.521 17.5813 106.671 17.112 106.671 16.504C106.671 15.896 106.521 15.432 106.223 15.112C105.935 14.792 105.577 14.632 105.151 14.632C104.724 14.632 104.367 14.792 104.079 15.112C103.791 15.432 103.647 15.896 103.647 16.504C103.647 17.1227 103.785 17.592 104.062 17.912C104.34 18.232 104.697 18.392 105.135 18.392ZM115.306 21.112C114.41 21.112 113.605 20.9253 112.89 20.552C112.186 20.1787 111.632 19.6453 111.226 18.952C110.821 18.2587 110.618 17.4427 110.618 16.504C110.618 15.576 110.821 14.7653 111.226 14.072C111.642 13.3787 112.202 12.8453 112.906 12.472C113.621 12.0987 114.426 11.912 115.322 11.912C116.218 11.912 117.018 12.0987 117.722 12.472C118.437 12.8453 118.997 13.3787 119.402 14.072C119.818 14.7653 120.026 15.576 120.026 16.504C120.026 17.432 119.818 18.248 119.402 18.952C118.997 19.6453 118.437 20.1787 117.722 20.552C117.008 20.9253 116.202 21.112 115.306 21.112ZM115.306 18.392C115.744 18.392 116.106 18.232 116.394 17.912C116.693 17.5813 116.842 17.112 116.842 16.504C116.842 15.896 116.693 15.432 116.394 15.112C116.106 14.792 115.749 14.632 115.322 14.632C114.896 14.632 114.538 14.792 114.25 15.112C113.962 15.432 113.818 15.896 113.818 16.504C113.818 17.1227 113.957 17.592 114.234 17.912C114.512 18.232 114.869 18.392 115.306 18.392ZM126.918 21L124.438 17.32V21H121.302V9.16H124.438V15.544L126.918 12.024H130.678L127.142 16.536L130.742 21H126.918ZM135.486 21.112C134.675 21.112 133.95 20.9787 133.31 20.712C132.68 20.4347 132.179 20.0613 131.806 19.592C131.443 19.112 131.24 18.5733 131.198 17.976H134.238C134.28 18.264 134.414 18.488 134.638 18.648C134.862 18.808 135.139 18.888 135.47 18.888C135.726 18.888 135.928 18.8347 136.078 18.728C136.227 18.6213 136.302 18.4827 136.302 18.312C136.302 18.088 136.179 17.9227 135.934 17.816C135.688 17.7093 135.283 17.592 134.718 17.464C134.078 17.336 133.544 17.192 133.118 17.032C132.691 16.872 132.318 16.6107 131.998 16.248C131.688 15.8853 131.534 15.3947 131.534 14.776C131.534 14.2427 131.678 13.7627 131.966 13.336C132.254 12.8987 132.675 12.552 133.23 12.296C133.795 12.04 134.472 11.912 135.262 11.912C136.435 11.912 137.358 12.2 138.03 12.776C138.702 13.352 139.091 14.1093 139.198 15.048H136.366C136.312 14.76 136.184 14.5413 135.982 14.392C135.79 14.232 135.528 14.152 135.198 14.152C134.942 14.152 134.744 14.2 134.606 14.296C134.478 14.392 134.414 14.5253 134.414 14.696C134.414 14.9093 134.536 15.0747 134.782 15.192C135.027 15.2987 135.422 15.4107 135.966 15.528C136.616 15.6667 137.155 15.8213 137.582 15.992C138.019 16.1627 138.398 16.44 138.718 16.824C139.048 17.1973 139.214 17.7093 139.214 18.36C139.214 18.8827 139.059 19.352 138.75 19.768C138.451 20.184 138.019 20.5147 137.454 20.76C136.899 20.9947 136.243 21.112 135.486 21.112Z" fill="#810EA7"/>
</svg>
