<svg width="25" height="25" viewBox="0 0 25 25" fill="none" xmlns="http://www.w3.org/2000/svg">
<g clip-path="url(#clip0_43_846)">
<path d="M24.1811 12.9293C24.1811 11.946 24.0995 11.2285 23.9228 10.4844H12.4316V14.9224H19.1767C19.0407 16.0253 18.3064 17.6862 16.6745 18.8023L16.6516 18.9509L20.2849 21.7011L20.5366 21.7257C22.8484 19.6395 24.1811 16.5701 24.1811 12.9293Z" fill="#4285F4"/>
<path d="M12.4316 24.6223C15.7361 24.6223 18.5103 23.5593 20.5366 21.7257L16.6745 18.8023C15.641 19.5066 14.2539 19.9982 12.4316 19.9982C9.19511 19.9982 6.44814 17.9121 5.46892 15.0287L5.32539 15.0407L1.54745 17.8975L1.49805 18.0317C3.51067 21.9382 7.64477 24.6223 12.4316 24.6223Z" fill="#34A853"/>
<path d="M5.46873 15.0288C5.21035 14.2847 5.06082 13.4874 5.06082 12.6636C5.06082 11.8397 5.21035 11.0425 5.45513 10.2984L5.44829 10.1399L1.62301 7.23718L1.49785 7.29535C0.668352 8.91645 0.192383 10.7369 0.192383 12.6636C0.192383 14.5903 0.668352 16.4106 1.49785 18.0317L5.46873 15.0288Z" fill="#FBBC05"/>
<path d="M12.4316 5.3288C14.7298 5.3288 16.2801 6.29879 17.164 7.10938L20.6182 3.81406C18.4968 1.88737 15.7361 0.704773 12.4316 0.704773C7.64477 0.704773 3.51067 3.38883 1.49805 7.29534L5.45533 10.2984C6.44814 7.41497 9.19511 5.3288 12.4316 5.3288Z" fill="#EB4335"/>
</g>
<defs>
<clipPath id="clip0_43_846">
<rect width="24" height="24" fill="white" transform="translate(0.192383 0.704773)"/>
</clipPath>
</defs>
</svg>
