<svg width="36" height="36" viewBox="0 0 36 36" fill="none" xmlns="http://www.w3.org/2000/svg">
<path d="M1 30.75L8.6198 23.1302C10.2795 21.4705 12.9705 21.4705 14.6302 23.1302L14.9948 23.4948C16.6545 25.1545 19.3455 25.1545 21.0052 23.4948L25.6198 18.8802C27.2795 17.2205 29.9705 17.2205 31.6302 18.8802L35 22.25M3.125 35H32.875C34.0486 35 35 34.0486 35 32.875V3.125C35 1.95139 34.0486 1 32.875 1H3.125C1.95139 1 1 1.95139 1 3.125V32.875C1 34.0486 1.95139 35 3.125 35ZM15.2184 11.2977C15.2184 13.4631 13.461 15.2205 11.2956 15.2205C9.13238 15.2205 7.375 13.4631 7.375 11.2977C7.375 9.13237 9.13238 7.375 11.2956 7.375C13.461 7.375 15.2184 9.13237 15.2184 11.2977Z" stroke="#810EA7" stroke-width="2" stroke-linejoin="round"/>
</svg>
