<svg width="103" height="98" viewBox="0 0 103 98" fill="none" xmlns="http://www.w3.org/2000/svg">
<mask id="path-1-outside-1_92_1350" maskUnits="userSpaceOnUse" x="-3" y="4.04822" width="108" height="17" fill="black">
<rect fill="white" x="-3" y="4.04822" width="108" height="17"/>
<path d="M16.784 6.76822L14.016 18.0482H10.16L8.608 11.1362L7.024 18.0482H3.168L0.432 6.76822H3.824L5.136 14.4802L6.912 6.76822H10.352L12.08 14.4162L13.392 6.76822H16.784ZM17.6028 13.5522C17.6028 12.6242 17.7681 11.8136 18.0988 11.1202C18.4401 10.4269 18.8988 9.89355 19.4748 9.52022C20.0614 9.14688 20.7121 8.96022 21.4268 8.96022C22.0454 8.96022 22.5788 9.08288 23.0268 9.32822C23.4748 9.57355 23.8214 9.90422 24.0668 10.3202V9.07222H27.2028V18.0482H24.0668V16.8002C23.8214 17.2162 23.4694 17.5469 23.0108 17.7922C22.5628 18.0376 22.0348 18.1602 21.4268 18.1602C20.7121 18.1602 20.0614 17.9736 19.4748 17.6002C18.8988 17.2269 18.4401 16.6936 18.0988 16.0002C17.7681 15.2962 17.6028 14.4802 17.6028 13.5522ZM24.0668 13.5522C24.0668 12.9762 23.9068 12.5229 23.5868 12.1922C23.2774 11.8616 22.8934 11.6962 22.4348 11.6962C21.9654 11.6962 21.5761 11.8616 21.2668 12.1922C20.9574 12.5122 20.8028 12.9656 20.8028 13.5522C20.8028 14.1282 20.9574 14.5869 21.2668 14.9282C21.5761 15.2589 21.9654 15.4242 22.4348 15.4242C22.8934 15.4242 23.2774 15.2589 23.5868 14.9282C23.9068 14.5976 24.0668 14.1389 24.0668 13.5522ZM32.1258 10.6562C32.4778 10.1442 32.9044 9.73888 33.4058 9.44022C33.9071 9.14155 34.4458 8.99222 35.0218 8.99222V12.3362H34.1418C33.4591 12.3362 32.9524 12.4696 32.6218 12.7362C32.2911 13.0029 32.1258 13.4669 32.1258 14.1282V18.0482H28.9898V9.07222H32.1258V10.6562ZM47.874 8.99222C49.0047 8.99222 49.89 9.33355 50.53 10.0162C51.1807 10.6989 51.506 11.6322 51.506 12.8162V18.0482H48.37V13.2322C48.37 12.7522 48.2367 12.3789 47.97 12.1122C47.7033 11.8456 47.3407 11.7122 46.882 11.7122C46.4233 11.7122 46.0607 11.8456 45.794 12.1122C45.5273 12.3789 45.394 12.7522 45.394 13.2322V18.0482H42.258V13.2322C42.258 12.7522 42.1247 12.3789 41.858 12.1122C41.602 11.8456 41.2447 11.7122 40.786 11.7122C40.3167 11.7122 39.9487 11.8456 39.682 12.1122C39.4153 12.3789 39.282 12.7522 39.282 13.2322V18.0482H36.146V9.07222H39.282V10.2562C39.5593 9.87222 39.9167 9.56822 40.354 9.34422C40.802 9.10955 41.314 8.99222 41.89 8.99222C42.5513 8.99222 43.138 9.13622 43.65 9.42422C44.1727 9.71222 44.5833 10.1176 44.882 10.6402C45.202 10.1496 45.6233 9.75488 46.146 9.45622C46.6687 9.14688 47.2447 8.99222 47.874 8.99222ZM60.4241 12.2562C61.0855 12.4056 61.6081 12.7362 61.9921 13.2482C62.3868 13.7496 62.5841 14.3256 62.5841 14.9762C62.5841 15.9362 62.2535 16.6882 61.5921 17.2322C60.9308 17.7762 60.0028 18.0482 58.8081 18.0482H53.2241V6.76822H58.6321C59.7841 6.76822 60.6855 7.02422 61.3361 7.53622C61.9975 8.04822 62.3281 8.76822 62.3281 9.69622C62.3281 10.3576 62.1521 10.9122 61.8001 11.3602C61.4588 11.7976 61.0001 12.0962 60.4241 12.2562ZM56.3601 11.2482H57.9441C58.7335 11.2482 59.1281 10.9229 59.1281 10.2722C59.1281 9.60022 58.7335 9.26422 57.9441 9.26422H56.3601V11.2482ZM58.1841 15.5202C58.9735 15.5202 59.3681 15.1896 59.3681 14.5282C59.3681 14.1869 59.2615 13.9256 59.0481 13.7442C58.8455 13.5629 58.5521 13.4722 58.1681 13.4722H56.3601V15.5202H58.1841ZM68.1345 18.1602C67.2385 18.1602 66.4332 17.9736 65.7185 17.6002C65.0145 17.2269 64.4598 16.6936 64.0545 16.0002C63.6492 15.3069 63.4465 14.4909 63.4465 13.5522C63.4465 12.6242 63.6492 11.8136 64.0545 11.1202C64.4705 10.4269 65.0305 9.89355 65.7345 9.52022C66.4492 9.14688 67.2545 8.96022 68.1505 8.96022C69.0465 8.96022 69.8465 9.14688 70.5505 9.52022C71.2652 9.89355 71.8252 10.4269 72.2305 11.1202C72.6465 11.8136 72.8545 12.6242 72.8545 13.5522C72.8545 14.4802 72.6465 15.2962 72.2305 16.0002C71.8252 16.6936 71.2652 17.2269 70.5505 17.6002C69.8358 17.9736 69.0305 18.1602 68.1345 18.1602ZM68.1345 15.4402C68.5718 15.4402 68.9345 15.2802 69.2225 14.9602C69.5212 14.6296 69.6705 14.1602 69.6705 13.5522C69.6705 12.9442 69.5212 12.4802 69.2225 12.1602C68.9345 11.8402 68.5772 11.6802 68.1505 11.6802C67.7238 11.6802 67.3665 11.8402 67.0785 12.1602C66.7905 12.4802 66.6465 12.9442 66.6465 13.5522C66.6465 14.1709 66.7852 14.6402 67.0625 14.9602C67.3398 15.2802 67.6972 15.4402 68.1345 15.4402ZM78.3064 18.1602C77.4104 18.1602 76.605 17.9736 75.8904 17.6002C75.1864 17.2269 74.6317 16.6936 74.2264 16.0002C73.821 15.3069 73.6184 14.4909 73.6184 13.5522C73.6184 12.6242 73.821 11.8136 74.2264 11.1202C74.6424 10.4269 75.2024 9.89355 75.9064 9.52022C76.621 9.14688 77.4264 8.96022 78.3224 8.96022C79.2184 8.96022 80.0184 9.14688 80.7224 9.52022C81.437 9.89355 81.997 10.4269 82.4024 11.1202C82.8184 11.8136 83.0264 12.6242 83.0264 13.5522C83.0264 14.4802 82.8184 15.2962 82.4024 16.0002C81.997 16.6936 81.437 17.2269 80.7224 17.6002C80.0077 17.9736 79.2024 18.1602 78.3064 18.1602ZM78.3064 15.4402C78.7437 15.4402 79.1064 15.2802 79.3944 14.9602C79.693 14.6296 79.8424 14.1602 79.8424 13.5522C79.8424 12.9442 79.693 12.4802 79.3944 12.1602C79.1064 11.8402 78.749 11.6802 78.3224 11.6802C77.8957 11.6802 77.5384 11.8402 77.2504 12.1602C76.9624 12.4802 76.8184 12.9442 76.8184 13.5522C76.8184 14.1709 76.957 14.6402 77.2344 14.9602C77.5117 15.2802 77.869 15.4402 78.3064 15.4402ZM89.9183 18.0482L87.4383 14.3682V18.0482H84.3023V6.20822H87.4383V12.5922L89.9183 9.07222H93.6783L90.1423 13.5842L93.7423 18.0482H89.9183ZM98.4856 18.1602C97.675 18.1602 96.9496 18.0269 96.3096 17.7602C95.6803 17.4829 95.179 17.1096 94.8056 16.6402C94.443 16.1602 94.2403 15.6216 94.1976 15.0242H97.2376C97.2803 15.3122 97.4136 15.5362 97.6376 15.6962C97.8616 15.8562 98.139 15.9362 98.4696 15.9362C98.7256 15.9362 98.9283 15.8829 99.0776 15.7762C99.227 15.6696 99.3016 15.5309 99.3016 15.3602C99.3016 15.1362 99.179 14.9709 98.9336 14.8642C98.6883 14.7576 98.283 14.6402 97.7176 14.5122C97.0776 14.3842 96.5443 14.2402 96.1176 14.0802C95.691 13.9202 95.3176 13.6589 94.9976 13.2962C94.6883 12.9336 94.5336 12.4429 94.5336 11.8242C94.5336 11.2909 94.6776 10.8109 94.9656 10.3842C95.2536 9.94688 95.675 9.60022 96.2296 9.34422C96.795 9.08822 97.4723 8.96022 98.2616 8.96022C99.435 8.96022 100.358 9.24822 101.03 9.82422C101.702 10.4002 102.091 11.1576 102.198 12.0962H99.3656C99.3123 11.8082 99.1843 11.5896 98.9816 11.4402C98.7896 11.2802 98.5283 11.2002 98.1976 11.2002C97.9416 11.2002 97.7443 11.2482 97.6056 11.3442C97.4776 11.4402 97.4136 11.5736 97.4136 11.7442C97.4136 11.9576 97.5363 12.1229 97.7816 12.2402C98.027 12.3469 98.4216 12.4589 98.9656 12.5762C99.6163 12.7149 100.155 12.8696 100.582 13.0402C101.019 13.2109 101.398 13.4882 101.718 13.8722C102.048 14.2456 102.214 14.7576 102.214 15.4082C102.214 15.9309 102.059 16.4002 101.75 16.8162C101.451 17.2322 101.019 17.5629 100.454 17.8082C99.899 18.0429 99.243 18.1602 98.4856 18.1602Z"/>
</mask>
<path d="M16.784 6.76822L14.016 18.0482H10.16L8.608 11.1362L7.024 18.0482H3.168L0.432 6.76822H3.824L5.136 14.4802L6.912 6.76822H10.352L12.08 14.4162L13.392 6.76822H16.784ZM17.6028 13.5522C17.6028 12.6242 17.7681 11.8136 18.0988 11.1202C18.4401 10.4269 18.8988 9.89355 19.4748 9.52022C20.0614 9.14688 20.7121 8.96022 21.4268 8.96022C22.0454 8.96022 22.5788 9.08288 23.0268 9.32822C23.4748 9.57355 23.8214 9.90422 24.0668 10.3202V9.07222H27.2028V18.0482H24.0668V16.8002C23.8214 17.2162 23.4694 17.5469 23.0108 17.7922C22.5628 18.0376 22.0348 18.1602 21.4268 18.1602C20.7121 18.1602 20.0614 17.9736 19.4748 17.6002C18.8988 17.2269 18.4401 16.6936 18.0988 16.0002C17.7681 15.2962 17.6028 14.4802 17.6028 13.5522ZM24.0668 13.5522C24.0668 12.9762 23.9068 12.5229 23.5868 12.1922C23.2774 11.8616 22.8934 11.6962 22.4348 11.6962C21.9654 11.6962 21.5761 11.8616 21.2668 12.1922C20.9574 12.5122 20.8028 12.9656 20.8028 13.5522C20.8028 14.1282 20.9574 14.5869 21.2668 14.9282C21.5761 15.2589 21.9654 15.4242 22.4348 15.4242C22.8934 15.4242 23.2774 15.2589 23.5868 14.9282C23.9068 14.5976 24.0668 14.1389 24.0668 13.5522ZM32.1258 10.6562C32.4778 10.1442 32.9044 9.73888 33.4058 9.44022C33.9071 9.14155 34.4458 8.99222 35.0218 8.99222V12.3362H34.1418C33.4591 12.3362 32.9524 12.4696 32.6218 12.7362C32.2911 13.0029 32.1258 13.4669 32.1258 14.1282V18.0482H28.9898V9.07222H32.1258V10.6562ZM47.874 8.99222C49.0047 8.99222 49.89 9.33355 50.53 10.0162C51.1807 10.6989 51.506 11.6322 51.506 12.8162V18.0482H48.37V13.2322C48.37 12.7522 48.2367 12.3789 47.97 12.1122C47.7033 11.8456 47.3407 11.7122 46.882 11.7122C46.4233 11.7122 46.0607 11.8456 45.794 12.1122C45.5273 12.3789 45.394 12.7522 45.394 13.2322V18.0482H42.258V13.2322C42.258 12.7522 42.1247 12.3789 41.858 12.1122C41.602 11.8456 41.2447 11.7122 40.786 11.7122C40.3167 11.7122 39.9487 11.8456 39.682 12.1122C39.4153 12.3789 39.282 12.7522 39.282 13.2322V18.0482H36.146V9.07222H39.282V10.2562C39.5593 9.87222 39.9167 9.56822 40.354 9.34422C40.802 9.10955 41.314 8.99222 41.89 8.99222C42.5513 8.99222 43.138 9.13622 43.65 9.42422C44.1727 9.71222 44.5833 10.1176 44.882 10.6402C45.202 10.1496 45.6233 9.75488 46.146 9.45622C46.6687 9.14688 47.2447 8.99222 47.874 8.99222ZM60.4241 12.2562C61.0855 12.4056 61.6081 12.7362 61.9921 13.2482C62.3868 13.7496 62.5841 14.3256 62.5841 14.9762C62.5841 15.9362 62.2535 16.6882 61.5921 17.2322C60.9308 17.7762 60.0028 18.0482 58.8081 18.0482H53.2241V6.76822H58.6321C59.7841 6.76822 60.6855 7.02422 61.3361 7.53622C61.9975 8.04822 62.3281 8.76822 62.3281 9.69622C62.3281 10.3576 62.1521 10.9122 61.8001 11.3602C61.4588 11.7976 61.0001 12.0962 60.4241 12.2562ZM56.3601 11.2482H57.9441C58.7335 11.2482 59.1281 10.9229 59.1281 10.2722C59.1281 9.60022 58.7335 9.26422 57.9441 9.26422H56.3601V11.2482ZM58.1841 15.5202C58.9735 15.5202 59.3681 15.1896 59.3681 14.5282C59.3681 14.1869 59.2615 13.9256 59.0481 13.7442C58.8455 13.5629 58.5521 13.4722 58.1681 13.4722H56.3601V15.5202H58.1841ZM68.1345 18.1602C67.2385 18.1602 66.4332 17.9736 65.7185 17.6002C65.0145 17.2269 64.4598 16.6936 64.0545 16.0002C63.6492 15.3069 63.4465 14.4909 63.4465 13.5522C63.4465 12.6242 63.6492 11.8136 64.0545 11.1202C64.4705 10.4269 65.0305 9.89355 65.7345 9.52022C66.4492 9.14688 67.2545 8.96022 68.1505 8.96022C69.0465 8.96022 69.8465 9.14688 70.5505 9.52022C71.2652 9.89355 71.8252 10.4269 72.2305 11.1202C72.6465 11.8136 72.8545 12.6242 72.8545 13.5522C72.8545 14.4802 72.6465 15.2962 72.2305 16.0002C71.8252 16.6936 71.2652 17.2269 70.5505 17.6002C69.8358 17.9736 69.0305 18.1602 68.1345 18.1602ZM68.1345 15.4402C68.5718 15.4402 68.9345 15.2802 69.2225 14.9602C69.5212 14.6296 69.6705 14.1602 69.6705 13.5522C69.6705 12.9442 69.5212 12.4802 69.2225 12.1602C68.9345 11.8402 68.5772 11.6802 68.1505 11.6802C67.7238 11.6802 67.3665 11.8402 67.0785 12.1602C66.7905 12.4802 66.6465 12.9442 66.6465 13.5522C66.6465 14.1709 66.7852 14.6402 67.0625 14.9602C67.3398 15.2802 67.6972 15.4402 68.1345 15.4402ZM78.3064 18.1602C77.4104 18.1602 76.605 17.9736 75.8904 17.6002C75.1864 17.2269 74.6317 16.6936 74.2264 16.0002C73.821 15.3069 73.6184 14.4909 73.6184 13.5522C73.6184 12.6242 73.821 11.8136 74.2264 11.1202C74.6424 10.4269 75.2024 9.89355 75.9064 9.52022C76.621 9.14688 77.4264 8.96022 78.3224 8.96022C79.2184 8.96022 80.0184 9.14688 80.7224 9.52022C81.437 9.89355 81.997 10.4269 82.4024 11.1202C82.8184 11.8136 83.0264 12.6242 83.0264 13.5522C83.0264 14.4802 82.8184 15.2962 82.4024 16.0002C81.997 16.6936 81.437 17.2269 80.7224 17.6002C80.0077 17.9736 79.2024 18.1602 78.3064 18.1602ZM78.3064 15.4402C78.7437 15.4402 79.1064 15.2802 79.3944 14.9602C79.693 14.6296 79.8424 14.1602 79.8424 13.5522C79.8424 12.9442 79.693 12.4802 79.3944 12.1602C79.1064 11.8402 78.749 11.6802 78.3224 11.6802C77.8957 11.6802 77.5384 11.8402 77.2504 12.1602C76.9624 12.4802 76.8184 12.9442 76.8184 13.5522C76.8184 14.1709 76.957 14.6402 77.2344 14.9602C77.5117 15.2802 77.869 15.4402 78.3064 15.4402ZM89.9183 18.0482L87.4383 14.3682V18.0482H84.3023V6.20822H87.4383V12.5922L89.9183 9.07222H93.6783L90.1423 13.5842L93.7423 18.0482H89.9183ZM98.4856 18.1602C97.675 18.1602 96.9496 18.0269 96.3096 17.7602C95.6803 17.4829 95.179 17.1096 94.8056 16.6402C94.443 16.1602 94.2403 15.6216 94.1976 15.0242H97.2376C97.2803 15.3122 97.4136 15.5362 97.6376 15.6962C97.8616 15.8562 98.139 15.9362 98.4696 15.9362C98.7256 15.9362 98.9283 15.8829 99.0776 15.7762C99.227 15.6696 99.3016 15.5309 99.3016 15.3602C99.3016 15.1362 99.179 14.9709 98.9336 14.8642C98.6883 14.7576 98.283 14.6402 97.7176 14.5122C97.0776 14.3842 96.5443 14.2402 96.1176 14.0802C95.691 13.9202 95.3176 13.6589 94.9976 13.2962C94.6883 12.9336 94.5336 12.4429 94.5336 11.8242C94.5336 11.2909 94.6776 10.8109 94.9656 10.3842C95.2536 9.94688 95.675 9.60022 96.2296 9.34422C96.795 9.08822 97.4723 8.96022 98.2616 8.96022C99.435 8.96022 100.358 9.24822 101.03 9.82422C101.702 10.4002 102.091 11.1576 102.198 12.0962H99.3656C99.3123 11.8082 99.1843 11.5896 98.9816 11.4402C98.7896 11.2802 98.5283 11.2002 98.1976 11.2002C97.9416 11.2002 97.7443 11.2482 97.6056 11.3442C97.4776 11.4402 97.4136 11.5736 97.4136 11.7442C97.4136 11.9576 97.5363 12.1229 97.7816 12.2402C98.027 12.3469 98.4216 12.4589 98.9656 12.5762C99.6163 12.7149 100.155 12.8696 100.582 13.0402C101.019 13.2109 101.398 13.4882 101.718 13.8722C102.048 14.2456 102.214 14.7576 102.214 15.4082C102.214 15.9309 102.059 16.4002 101.75 16.8162C101.451 17.2322 101.019 17.5629 100.454 17.8082C99.899 18.0429 99.243 18.1602 98.4856 18.1602Z" fill="#810EA7"/>
<path d="M16.784 6.76822L18.7264 7.24486L19.3341 4.76822H16.784V6.76822ZM14.016 18.0482V20.0482H15.5846L15.9584 18.5249L14.016 18.0482ZM10.16 18.0482L8.20859 18.4864L8.55928 20.0482H10.16V18.0482ZM8.608 11.1362L10.5594 10.6981L6.65854 10.6895L8.608 11.1362ZM7.024 18.0482V20.0482H8.61751L8.97346 18.495L7.024 18.0482ZM3.168 18.0482L1.22436 18.5197L1.59512 20.0482H3.168V18.0482ZM0.432 6.76822V4.76822H-2.1111L-1.51164 7.23965L0.432 6.76822ZM3.824 6.76822L5.79567 6.43279L5.51249 4.76822H3.824V6.76822ZM5.136 14.4802L3.16433 14.8156L7.08499 14.9291L5.136 14.4802ZM6.912 6.76822V4.76822H5.32023L4.96301 6.31938L6.912 6.76822ZM10.352 6.76822L12.3028 6.32744L11.9505 4.76822H10.352V6.76822ZM12.08 14.4162L10.1292 14.857L14.0512 14.7544L12.08 14.4162ZM13.392 6.76822V4.76822H11.7059L11.4208 6.43006L13.392 6.76822ZM14.8416 6.29158L12.0736 17.5716L15.9584 18.5249L18.7264 7.24486L14.8416 6.29158ZM14.016 16.0482H10.16V20.0482H14.016V16.0482ZM12.1114 17.6101L10.5594 10.6981L6.65659 11.5744L8.20859 18.4864L12.1114 17.6101ZM6.65854 10.6895L5.07454 17.6015L8.97346 18.495L10.5575 11.583L6.65854 10.6895ZM7.024 16.0482H3.168V20.0482H7.024V16.0482ZM5.11164 17.5768L2.37564 6.29678L-1.51164 7.23965L1.22436 18.5197L5.11164 17.5768ZM0.432 8.76822H3.824V4.76822H0.432V8.76822ZM1.85233 7.10365L3.16433 14.8156L7.10767 14.1448L5.79567 6.43279L1.85233 7.10365ZM7.08499 14.9291L8.86099 7.21705L4.96301 6.31938L3.18701 14.0314L7.08499 14.9291ZM6.912 8.76822H10.352V4.76822H6.912V8.76822ZM8.40117 7.20899L10.1292 14.857L14.0308 13.9754L12.3028 6.32744L8.40117 7.20899ZM14.0512 14.7544L15.3632 7.10637L11.4208 6.43006L10.1088 14.0781L14.0512 14.7544ZM13.392 8.76822H16.784V4.76822H13.392V8.76822ZM18.0987 11.1202L16.3044 10.2368L16.2989 10.248L16.2935 10.2593L18.0987 11.1202ZM19.4748 9.52022L18.401 7.83289L18.394 7.83737L18.387 7.84191L19.4748 9.52022ZM23.0268 9.32822L22.0661 11.0824H22.0661L23.0268 9.32822ZM24.0667 10.3202L22.344 11.3362L26.0667 17.6486V10.3202H24.0667ZM24.0667 9.07222V7.07222H22.0667V9.07222H24.0667ZM27.2028 9.07222H29.2028V7.07222H27.2028V9.07222ZM27.2028 18.0482V20.0482H29.2028V18.0482H27.2028ZM24.0667 18.0482H22.0667V20.0482H24.0667V18.0482ZM24.0667 16.8002H26.0667V9.47179L22.344 15.7842L24.0667 16.8002ZM23.0107 17.7922L22.0674 16.0286L22.0588 16.0333L22.0501 16.038L23.0107 17.7922ZM19.4748 17.6002L18.387 19.2785L18.394 19.2831L18.401 19.2875L19.4748 17.6002ZM18.0987 16.0002L16.2885 16.8505L16.2963 16.8671L16.3044 16.8836L18.0987 16.0002ZM23.5868 12.1922L22.1262 13.5585L22.1378 13.5709L22.1495 13.5831L23.5868 12.1922ZM21.2668 12.1922L22.7047 13.5823L22.7161 13.5705L22.7273 13.5585L21.2668 12.1922ZM21.2668 14.9282L19.7848 16.2713L19.7954 16.283L19.8062 16.2945L21.2668 14.9282ZM23.5868 14.9282L22.1495 13.5374L22.1378 13.5495L22.1262 13.5619L23.5868 14.9282ZM19.6028 13.5522C19.6028 12.8611 19.7254 12.3555 19.904 11.9812L16.2935 10.2593C15.8107 11.2716 15.6027 12.3873 15.6027 13.5522H19.6028ZM19.8931 12.0036C20.0955 11.5924 20.3263 11.3517 20.5625 11.1985L18.387 7.84191C17.4712 8.43544 16.7847 9.26135 16.3044 10.2368L19.8931 12.0036ZM20.5485 11.2075C20.805 11.0443 21.0813 10.9602 21.4268 10.9602V6.96022C20.3429 6.96022 19.3178 7.24945 18.401 7.83289L20.5485 11.2075ZM21.4268 10.9602C21.7801 10.9602 21.9688 11.0291 22.0661 11.0824L23.9874 7.57403C23.1887 7.13665 22.3107 6.96022 21.4268 6.96022V10.9602ZM22.0661 11.0824C22.2172 11.1651 22.2923 11.2485 22.344 11.3362L25.7895 9.30425C25.3505 8.55996 24.7323 7.98196 23.9874 7.57402L22.0661 11.0824ZM26.0667 10.3202V9.07222H22.0667V10.3202H26.0667ZM24.0667 11.0722H27.2028V7.07222H24.0667V11.0722ZM25.2028 9.07222V18.0482H29.2028V9.07222H25.2028ZM27.2028 16.0482H24.0667V20.0482H27.2028V16.0482ZM26.0667 18.0482V16.8002H22.0667V18.0482H26.0667ZM22.344 15.7842C22.2994 15.8599 22.2285 15.9425 22.0674 16.0286L23.9541 19.5558C24.7103 19.1513 25.3435 18.5725 25.7895 17.8162L22.344 15.7842ZM22.0501 16.038C21.948 16.094 21.7628 16.1602 21.4268 16.1602V20.1602C22.3067 20.1602 23.1775 19.9811 23.9714 19.5464L22.0501 16.038ZM21.4268 16.1602C21.0813 16.1602 20.805 16.0761 20.5485 15.9129L18.401 19.2875C19.3178 19.871 20.3429 20.1602 21.4268 20.1602V16.1602ZM20.5625 15.9219C20.3263 15.7688 20.0955 15.528 19.8931 15.1168L16.3044 16.8836C16.7847 17.8591 17.4712 18.685 18.387 19.2785L20.5625 15.9219ZM19.909 15.1499C19.7251 14.7584 19.6028 14.2423 19.6028 13.5522H15.6027C15.6027 14.7181 15.8111 15.834 16.2885 16.8505L19.909 15.1499ZM26.0667 13.5522C26.0667 12.5944 25.7903 11.5933 25.024 10.8014L22.1495 13.5831C22.1277 13.5605 22.1077 13.5347 22.091 13.5075C22.0746 13.4806 22.0653 13.4587 22.0608 13.4459C22.052 13.4211 22.0667 13.4473 22.0667 13.5522H26.0667ZM25.0473 10.8259C24.3543 10.0851 23.4388 9.69622 22.4347 9.69622V13.6962C22.4187 13.6962 22.357 13.6921 22.2758 13.6572C22.1941 13.622 22.1441 13.5777 22.1262 13.5585L25.0473 10.8259ZM22.4347 9.69622C21.4347 9.69622 20.509 10.0746 19.8062 10.8259L22.7273 13.5585C22.7049 13.5824 22.6525 13.6271 22.5725 13.6611C22.4941 13.6944 22.4392 13.6962 22.4347 13.6962V9.69622ZM19.8288 10.8022C19.0558 11.6018 18.8027 12.6171 18.8027 13.5522H22.8027C22.8027 13.431 22.8191 13.3961 22.8116 13.418C22.8075 13.4301 22.7977 13.4545 22.7787 13.4862C22.7595 13.5183 22.7346 13.5514 22.7047 13.5823L19.8288 10.8022ZM18.8027 13.5522C18.8027 14.4953 19.0643 15.4763 19.7848 16.2713L22.7487 13.5852C22.7662 13.6044 22.7816 13.6256 22.7938 13.6468C22.8059 13.6677 22.8118 13.6831 22.8139 13.6892C22.8178 13.7006 22.8027 13.663 22.8027 13.5522H18.8027ZM19.8062 16.2945C20.509 17.0458 21.4347 17.4242 22.4347 17.4242V13.4242C22.4392 13.4242 22.4941 13.426 22.5725 13.4593C22.6525 13.4933 22.7049 13.538 22.7273 13.5619L19.8062 16.2945ZM22.4347 17.4242C23.4388 17.4242 24.3543 17.0354 25.0473 16.2945L22.1262 13.5619C22.1441 13.5428 22.1941 13.4984 22.2758 13.4633C22.357 13.4283 22.4187 13.4242 22.4347 13.4242V17.4242ZM25.024 16.3191C25.7968 15.5205 26.0667 14.509 26.0667 13.5522H22.0667C22.0667 13.6664 22.0509 13.6987 22.0583 13.6775C22.0623 13.6662 22.0712 13.6446 22.0879 13.6171C22.1048 13.5893 22.1258 13.5619 22.1495 13.5374L25.024 16.3191ZM32.1258 10.6562H30.1257V17.0956L33.7738 11.7893L32.1258 10.6562ZM35.0218 8.99222H37.0218V6.99222H35.0218V8.99222ZM35.0218 12.3362V14.3362H37.0218V12.3362H35.0218ZM32.6217 12.7362L33.8773 14.293V14.293L32.6217 12.7362ZM32.1258 18.0482V20.0482H34.1258V18.0482H32.1258ZM28.9897 18.0482H26.9897V20.0482H28.9897V18.0482ZM28.9897 9.07222V7.07222H26.9897V9.07222H28.9897ZM32.1258 9.07222H34.1258V7.07222H32.1258V9.07222ZM33.7738 11.7893C33.9731 11.4994 34.1918 11.2999 34.4294 11.1584L32.3821 7.72201C31.617 8.17783 30.9824 8.78903 30.4777 9.52316L33.7738 11.7893ZM34.4294 11.1584C34.6254 11.0416 34.8111 10.9922 35.0218 10.9922V6.99222C34.0804 6.99222 33.1888 7.24146 32.3821 7.72201L34.4294 11.1584ZM33.0218 8.99222V12.3362H37.0218V8.99222H33.0218ZM35.0218 10.3362H34.1418V14.3362H35.0218V10.3362ZM34.1418 10.3362C33.2608 10.3362 32.2119 10.4974 31.3662 11.1794L33.8773 14.293C33.7782 14.3729 33.7161 14.3816 33.7587 14.3704C33.8046 14.3583 33.9234 14.3362 34.1418 14.3362V10.3362ZM31.3662 11.1794C30.3523 11.9971 30.1257 13.2015 30.1257 14.1282H34.1258C34.1258 13.9529 34.1491 13.9123 34.1337 13.9555C34.1246 13.9811 34.103 14.0324 34.0595 14.0965C34.015 14.1621 33.9543 14.2309 33.8773 14.293L31.3662 11.1794ZM30.1257 14.1282V18.0482H34.1258V14.1282H30.1257ZM32.1258 16.0482H28.9897V20.0482H32.1258V16.0482ZM30.9897 18.0482V9.07222H26.9897V18.0482H30.9897ZM28.9897 11.0722H32.1258V7.07222H28.9897V11.0722ZM30.1257 9.07222V10.6562H34.1258V9.07222H30.1257ZM50.53 10.0162L49.0709 11.3841L49.0766 11.3901L49.0823 11.3961L50.53 10.0162ZM51.506 18.0482V20.0482H53.506V18.0482H51.506ZM48.37 18.0482H46.37V20.0482H48.37V18.0482ZM47.97 12.1122L46.5558 13.5264V13.5264L47.97 12.1122ZM45.794 12.1122L47.2082 13.5264V13.5264L45.794 12.1122ZM45.394 18.0482V20.0482H47.394V18.0482H45.394ZM42.258 18.0482H40.258V20.0482H42.258V18.0482ZM41.858 12.1122L40.4152 13.4973L40.4294 13.512L40.4438 13.5264L41.858 12.1122ZM39.282 18.0482V20.0482H41.282V18.0482H39.282ZM36.146 18.0482H34.146V20.0482H36.146V18.0482ZM36.146 9.07222V7.07222H34.146V9.07222H36.146ZM39.282 9.07222H41.282V7.07222H39.282V9.07222ZM39.282 10.2562H37.282V16.4414L40.9034 11.4272L39.282 10.2562ZM40.354 9.34422L41.2658 11.1243L41.2739 11.1201L41.282 11.1159L40.354 9.34422ZM43.65 9.42422L42.6695 11.1674L42.6771 11.1717L42.6848 11.1759L43.65 9.42422ZM44.882 10.6402L43.1455 11.6325L44.7693 14.4742L46.5572 11.7328L44.882 10.6402ZM46.146 9.45622L47.1383 11.1927L47.1515 11.1851L47.1646 11.1774L46.146 9.45622ZM47.874 10.9922C48.5761 10.9922 48.8864 11.1872 49.0709 11.3841L51.9891 8.64834C50.8937 7.47988 49.4332 6.99222 47.874 6.99222V10.9922ZM49.0823 11.3961C49.2938 11.618 49.506 12.0086 49.506 12.8162H53.506C53.506 11.2558 53.0676 9.77977 51.9777 8.63634L49.0823 11.3961ZM49.506 12.8162V18.0482H53.506V12.8162H49.506ZM51.506 16.0482H48.37V20.0482H51.506V16.0482ZM50.37 18.0482V13.2322H46.37V18.0482H50.37ZM50.37 13.2322C50.37 12.3737 50.1212 11.435 49.3842 10.698L46.5558 13.5264C46.469 13.4397 46.4142 13.3425 46.3865 13.2649C46.3618 13.1956 46.37 13.1746 46.37 13.2322H50.37ZM49.3842 10.698C48.6641 9.97787 47.7489 9.71222 46.882 9.71222V13.7122C46.9188 13.7122 46.8846 13.7176 46.8079 13.6894C46.724 13.6586 46.6325 13.6032 46.5558 13.5264L49.3842 10.698ZM46.882 9.71222C46.0151 9.71222 45.0999 9.97787 44.3798 10.698L47.2082 13.5264C47.1315 13.6032 47.04 13.6586 46.9561 13.6894C46.8794 13.7176 46.8452 13.7122 46.882 13.7122V9.71222ZM44.3798 10.698C43.6428 11.435 43.394 12.3737 43.394 13.2322H47.394C47.394 13.1746 47.4022 13.1956 47.3775 13.2649C47.3498 13.3425 47.295 13.4397 47.2082 13.5264L44.3798 10.698ZM43.394 13.2322V18.0482H47.394V13.2322H43.394ZM45.394 16.0482H42.258V20.0482H45.394V16.0482ZM44.258 18.0482V13.2322H40.258V18.0482H44.258ZM44.258 13.2322C44.258 12.3737 44.0092 11.435 43.2722 10.698L40.4438 13.5264C40.357 13.4397 40.3022 13.3425 40.2745 13.2649C40.2498 13.1956 40.258 13.1746 40.258 13.2322H44.258ZM43.3008 10.7272C42.5807 9.97709 41.6495 9.71222 40.786 9.71222V13.7122C40.8237 13.7122 40.784 13.7178 40.6988 13.686C40.6053 13.6511 40.5019 13.5876 40.4152 13.4973L43.3008 10.7272ZM40.786 9.71222C39.9234 9.71222 38.9965 9.96927 38.2678 10.698L41.0962 13.5264C41.0144 13.6082 40.9201 13.6633 40.8393 13.6926C40.7662 13.7191 40.7387 13.7122 40.786 13.7122V9.71222ZM38.2678 10.698C37.5308 11.435 37.282 12.3737 37.282 13.2322H41.282C41.282 13.1746 41.2902 13.1956 41.2655 13.2649C41.2378 13.3425 41.183 13.4397 41.0962 13.5264L38.2678 10.698ZM37.282 13.2322V18.0482H41.282V13.2322H37.282ZM39.282 16.0482H36.146V20.0482H39.282V16.0482ZM38.146 18.0482V9.07222H34.146V18.0482H38.146ZM36.146 11.0722H39.282V7.07222H36.146V11.0722ZM37.282 9.07222V10.2562H41.282V9.07222H37.282ZM40.9034 11.4272C40.9886 11.3092 41.0989 11.2098 41.2658 11.1243L39.4422 7.56413C38.7344 7.92668 38.1301 8.43527 37.6606 9.08524L40.9034 11.4272ZM41.282 11.1159C41.4061 11.0509 41.5919 10.9922 41.89 10.9922V6.99222C41.0361 6.99222 40.1979 7.1682 39.426 7.57255L41.282 11.1159ZM41.89 10.9922C42.2518 10.9922 42.493 11.0681 42.6695 11.1674L44.6305 7.68107C43.783 7.20435 42.8508 6.99222 41.89 6.99222V10.9922ZM42.6848 11.1759C42.8825 11.2848 43.0276 11.4261 43.1455 11.6325L46.6185 9.64794C46.1391 8.80901 45.4628 8.1396 44.6152 7.67254L42.6848 11.1759ZM46.5572 11.7328C46.699 11.5154 46.8832 11.3384 47.1383 11.1927L45.1537 7.71973C44.3634 8.17132 43.705 8.78372 43.2068 9.54768L46.5572 11.7328ZM47.1646 11.1774C47.3674 11.0574 47.5895 10.9922 47.874 10.9922V6.99222C46.8998 6.99222 45.9699 7.2364 45.1274 7.73507L47.1646 11.1774ZM60.4241 12.2562L59.8888 10.3292L59.9836 14.2071L60.4241 12.2562ZM61.9921 13.2482L60.3921 14.4482L60.4062 14.4669L60.4207 14.4853L61.9921 13.2482ZM61.5921 17.2322L62.8627 18.7768V18.7768L61.5921 17.2322ZM53.2241 18.0482H51.2241V20.0482H53.2241V18.0482ZM53.2241 6.76822V4.76822H51.2241V6.76822H53.2241ZM61.3361 7.53622L60.0993 9.10796L60.1055 9.11284L60.1118 9.11767L61.3361 7.53622ZM61.8001 11.3602L60.2275 10.1246L60.2235 10.1297L61.8001 11.3602ZM56.3601 11.2482H54.3601V13.2482H56.3601V11.2482ZM56.3601 9.26422V7.26422H54.3601V9.26422H56.3601ZM59.0481 13.7442L57.7145 15.2347L57.7335 15.2516L57.7528 15.2681L59.0481 13.7442ZM56.3601 13.4722V11.4722H54.3601V13.4722H56.3601ZM56.3601 15.5202H54.3601V17.5202H56.3601V15.5202ZM59.9836 14.2071C60.2113 14.2585 60.311 14.34 60.3921 14.4482L63.5921 12.0482C62.9053 11.1324 61.9596 10.5526 60.8646 10.3053L59.9836 14.2071ZM60.4207 14.4853C60.5318 14.6266 60.5841 14.7647 60.5841 14.9762H64.5841C64.5841 13.8864 64.2418 12.8725 63.5636 12.0111L60.4207 14.4853ZM60.5841 14.9762C60.5841 15.4199 60.4614 15.5726 60.3216 15.6876L62.8627 18.7768C64.0455 17.8038 64.5841 16.4525 64.5841 14.9762H60.5841ZM60.3216 15.6876C60.1367 15.8397 59.7203 16.0482 58.8081 16.0482V20.0482C60.2853 20.0482 61.7249 19.7127 62.8627 18.7768L60.3216 15.6876ZM58.8081 16.0482H53.2241V20.0482H58.8081V16.0482ZM55.2241 18.0482V6.76822H51.2241V18.0482H55.2241ZM53.2241 8.76822H58.6321V4.76822H53.2241V8.76822ZM58.6321 8.76822C59.5082 8.76822 59.9165 8.96405 60.0993 9.10796L62.5729 5.96448C61.4545 5.08439 60.06 4.76822 58.6321 4.76822V8.76822ZM60.1118 9.11767C60.2256 9.20578 60.3281 9.30937 60.3281 9.69622H64.3281C64.3281 8.22706 63.7693 6.89065 62.5605 5.95477L60.1118 9.11767ZM60.3281 9.69622C60.3281 9.9847 60.2594 10.0839 60.2275 10.1246L63.3728 12.5959C64.0448 11.7405 64.3281 10.7304 64.3281 9.69622H60.3281ZM60.2235 10.1297C60.1666 10.2026 60.086 10.2744 59.8888 10.3292L60.9594 14.1833C61.9142 13.918 62.751 13.3925 63.3768 12.5908L60.2235 10.1297ZM56.3601 13.2482H57.9441V9.24822H56.3601V13.2482ZM57.9441 13.2482C58.5632 13.2482 59.3994 13.1285 60.1043 12.5475C60.8831 11.9054 61.1281 11.0186 61.1281 10.2722H57.1281C57.1281 10.2366 57.1332 10.1147 57.2 9.94945C57.2717 9.77198 57.3939 9.59786 57.56 9.46096C57.8702 9.20525 58.1143 9.24822 57.9441 9.24822V13.2482ZM61.1281 10.2722C61.1281 9.53619 60.8969 8.64741 60.1286 7.99335C59.422 7.39177 58.5754 7.26422 57.9441 7.26422V11.2642C58.1021 11.2642 57.8476 11.3047 57.5356 11.0391C57.3719 10.8996 57.2572 10.7275 57.1918 10.5604C57.1311 10.4054 57.1281 10.2956 57.1281 10.2722H61.1281ZM57.9441 7.26422H56.3601V11.2642H57.9441V7.26422ZM54.3601 9.26422V11.2482H58.3601V9.26422H54.3601ZM58.1841 17.5202C58.8093 17.5202 59.6507 17.3966 60.3566 16.8053C61.1302 16.1571 61.3681 15.2692 61.3681 14.5282H57.3681C57.3681 14.4988 57.3721 14.383 57.4358 14.2229C57.5043 14.0506 57.6227 13.8774 57.7877 13.7392C58.0989 13.4785 58.3483 13.5202 58.1841 13.5202V17.5202ZM61.3681 14.5282C61.3681 13.7408 61.1009 12.8642 60.3434 12.2203L57.7528 15.2681C57.6131 15.1493 57.5033 14.9958 57.4364 14.832C57.3736 14.6782 57.3681 14.5638 57.3681 14.5282H61.3681ZM60.3817 12.2537C59.6856 11.6309 58.8424 11.4722 58.1681 11.4722V15.4722C58.2618 15.4722 58.0053 15.4949 57.7145 15.2347L60.3817 12.2537ZM58.1681 11.4722H56.3601V15.4722H58.1681V11.4722ZM54.3601 13.4722V15.5202H58.3601V13.4722H54.3601ZM56.3601 17.5202H58.1841V13.5202H56.3601V17.5202ZM65.7185 17.6002L64.7815 19.3672L64.7925 19.3729L65.7185 17.6002ZM64.0545 16.0002L65.7811 14.9908H65.7811L64.0545 16.0002ZM64.0545 11.1202L62.3395 10.0912L62.3337 10.101L62.3279 10.1108L64.0545 11.1202ZM65.7345 9.52022L64.8084 7.74748L64.7975 7.75329L65.7345 9.52022ZM70.5505 9.52022L69.6135 11.2872L69.6245 11.2929L70.5505 9.52022ZM72.2305 11.1202L70.5039 12.1296L70.5097 12.1394L70.5155 12.1492L72.2305 11.1202ZM72.2305 16.0002L70.5086 14.9827L70.5039 14.9908L72.2305 16.0002ZM70.5505 17.6002L69.6245 15.8275L70.5505 17.6002ZM69.2225 14.9602L67.7383 13.6196L67.7359 13.6223L69.2225 14.9602ZM69.2225 12.1602L67.7359 13.4981L67.748 13.5116L67.7604 13.5249L69.2225 12.1602ZM67.0625 14.9602L65.5511 16.2701L67.0625 14.9602ZM68.1345 16.1602C67.5245 16.1602 67.0427 16.0355 66.6445 15.8275L64.7925 19.3729C65.8236 19.9116 66.9525 20.1602 68.1345 20.1602V16.1602ZM66.6555 15.8333C66.2827 15.6356 66.0003 15.3658 65.7811 14.9908L62.3279 17.0096C62.9193 18.0213 63.7463 18.8182 64.7815 19.3671L66.6555 15.8333ZM65.7811 14.9908C65.583 14.6521 65.4465 14.1966 65.4465 13.5522H61.4465C61.4465 14.7852 61.7153 15.9617 62.3279 17.0096L65.7811 14.9908ZM65.4465 13.5522C65.4465 12.9231 65.5811 12.4718 65.7811 12.1296L62.3279 10.1108C61.7173 11.1553 61.4465 12.3254 61.4465 13.5522H65.4465ZM65.7695 12.1492C66.0011 11.7633 66.2941 11.4873 66.6715 11.2871L64.7975 7.75329C63.7669 8.29982 62.9399 9.09051 62.3395 10.0912L65.7695 12.1492ZM66.6605 11.2929C67.0587 11.0849 67.5405 10.9602 68.1505 10.9602V6.96022C66.9685 6.96022 65.8396 7.20886 64.8085 7.74752L66.6605 11.2929ZM68.1505 10.9602C68.761 10.9602 69.2324 11.0851 69.6135 11.2871L71.4875 7.75329C70.4606 7.20871 69.332 6.96022 68.1505 6.96022V10.9602ZM69.6245 11.2929C70.0072 11.4929 70.2892 11.7623 70.5039 12.1296L73.9571 10.1108C73.3612 9.09149 72.5231 8.29424 71.4765 7.74752L69.6245 11.2929ZM70.5155 12.1492C70.7188 12.4881 70.8545 12.9322 70.8545 13.5522H74.8545C74.8545 12.3162 74.5742 11.139 73.9455 10.0912L70.5155 12.1492ZM70.8545 13.5522C70.8545 14.1715 70.719 14.6267 70.5086 14.9828L73.9524 17.0177C74.574 15.9657 74.8545 14.7889 74.8545 13.5522H70.8545ZM70.5039 14.9908C70.2892 15.3582 70.0072 15.6276 69.6245 15.8275L71.4765 19.3729C72.5231 18.8262 73.3612 18.0289 73.9571 17.0096L70.5039 14.9908ZM69.6245 15.8275C69.2263 16.0355 68.7445 16.1602 68.1345 16.1602V20.1602C69.3165 20.1602 70.4454 19.9116 71.4765 19.3729L69.6245 15.8275ZM68.1345 17.4402C69.1286 17.4402 70.035 17.0471 70.7091 16.2981L67.7359 13.6223C67.7646 13.5905 67.8283 13.534 67.9272 13.4904C68.0254 13.4471 68.1041 13.4402 68.1345 13.4402V17.4402ZM70.7067 16.3008C71.442 15.4867 71.6705 14.4733 71.6705 13.5522H67.6705C67.6705 13.6967 67.6523 13.7549 67.6526 13.7538C67.6533 13.7519 67.6588 13.7352 67.6735 13.709C67.6884 13.6823 67.7099 13.6511 67.7383 13.6196L70.7067 16.3008ZM71.6705 13.5522C71.6705 12.6362 71.444 11.6092 70.6846 10.7956L67.7604 13.5249C67.7262 13.4883 67.7003 13.4516 67.682 13.4195C67.664 13.388 67.6565 13.3665 67.6547 13.3609C67.653 13.3559 67.6572 13.3671 67.6616 13.3992C67.6661 13.4314 67.6705 13.4814 67.6705 13.5522H71.6705ZM70.7091 10.8223C70.0457 10.0852 69.15 9.68022 68.1505 9.68022V13.6802C68.1077 13.6802 68.022 13.6707 67.9212 13.6256C67.8208 13.5807 67.7598 13.5247 67.7359 13.4981L70.7091 10.8223ZM68.1505 9.68022C67.151 9.68022 66.2553 10.0852 65.5919 10.8223L68.5651 13.4981C68.5412 13.5247 68.4802 13.5807 68.3798 13.6256C68.279 13.6707 68.1933 13.6802 68.1505 13.6802V9.68022ZM65.5919 10.8223C64.859 11.6366 64.6465 12.653 64.6465 13.5522H68.6465C68.6465 13.4785 68.6509 13.4252 68.6557 13.3895C68.6605 13.3539 68.6652 13.3392 68.6646 13.341C68.6639 13.3433 68.6577 13.3624 68.6412 13.3924C68.6243 13.4231 68.5994 13.46 68.5651 13.4981L65.5919 10.8223ZM64.6465 13.5522C64.6465 14.4351 64.8409 15.4506 65.5511 16.2701L68.5739 13.6504C68.6099 13.6919 68.6343 13.7304 68.6498 13.7597C68.6649 13.7884 68.6694 13.8044 68.6685 13.8015C68.6676 13.7983 68.6618 13.7776 68.6564 13.7354C68.6511 13.693 68.6465 13.6329 68.6465 13.5522H64.6465ZM65.5511 16.2701C66.2224 17.0446 67.1389 17.4402 68.1345 17.4402V13.4402C68.1644 13.4402 68.2488 13.4469 68.3558 13.4948C68.4645 13.5435 68.5374 13.6082 68.5739 13.6504L65.5511 16.2701ZM75.8904 17.6002L74.9534 19.3672L74.9643 19.3729L75.8904 17.6002ZM74.2264 16.0002L75.953 14.9908H75.953L74.2264 16.0002ZM74.2264 11.1202L72.5114 10.0912L72.5055 10.101L72.4998 10.1108L74.2264 11.1202ZM75.9064 9.52022L74.9803 7.74748L74.9694 7.75329L75.9064 9.52022ZM80.7224 9.52022L79.7854 11.2872L79.7963 11.2929L80.7224 9.52022ZM82.4024 11.1202L80.6758 12.1296L80.6815 12.1394L80.6874 12.1492L82.4024 11.1202ZM82.4024 16.0002L80.6805 14.9827L80.6758 14.9908L82.4024 16.0002ZM80.7224 17.6002L79.7963 15.8275L80.7224 17.6002ZM79.3944 14.9602L77.9102 13.6196L77.9078 13.6223L79.3944 14.9602ZM79.3944 12.1602L77.9078 13.4981L77.9199 13.5116L77.9323 13.5249L79.3944 12.1602ZM77.2344 14.9602L75.723 16.2701L77.2344 14.9602ZM78.3064 16.1602C77.6964 16.1602 77.2146 16.0355 76.8164 15.8275L74.9643 19.3729C75.9955 19.9116 77.1243 20.1602 78.3064 20.1602V16.1602ZM76.8274 15.8333C76.4546 15.6356 76.1722 15.3658 75.953 14.9908L72.4998 17.0096C73.0912 18.0213 73.9182 18.8182 74.9534 19.3671L76.8274 15.8333ZM75.953 14.9908C75.7549 14.6521 75.6184 14.1966 75.6184 13.5522H71.6184C71.6184 14.7852 71.8872 15.9617 72.4998 17.0096L75.953 14.9908ZM75.6184 13.5522C75.6184 12.9231 75.7529 12.4718 75.953 12.1296L72.4998 10.1108C71.8891 11.1553 71.6184 12.3254 71.6184 13.5522H75.6184ZM75.9414 12.1492C76.1729 11.7633 76.466 11.4873 76.8434 11.2871L74.9694 7.75329C73.9388 8.29982 73.1118 9.09051 72.5114 10.0912L75.9414 12.1492ZM76.8324 11.2929C77.2306 11.0849 77.7124 10.9602 78.3224 10.9602V6.96022C77.1403 6.96022 76.0115 7.20886 74.9803 7.74752L76.8324 11.2929ZM78.3224 10.9602C78.9329 10.9602 79.4043 11.0851 79.7854 11.2871L81.6594 7.75329C80.6324 7.20871 79.5039 6.96022 78.3224 6.96022V10.9602ZM79.7963 11.2929C80.1791 11.4929 80.461 11.7623 80.6758 12.1296L84.129 10.1108C83.5331 9.09149 82.695 8.29424 81.6484 7.74752L79.7963 11.2929ZM80.6874 12.1492C80.8907 12.4881 81.0264 12.9322 81.0264 13.5522H85.0264C85.0264 12.3162 84.746 11.139 84.1174 10.0912L80.6874 12.1492ZM81.0264 13.5522C81.0264 14.1715 80.8909 14.6267 80.6805 14.9828L84.1242 17.0177C84.7458 15.9657 85.0264 14.7889 85.0264 13.5522H81.0264ZM80.6758 14.9908C80.461 15.3582 80.1791 15.6276 79.7963 15.8275L81.6484 19.3729C82.695 18.8262 83.5331 18.0289 84.129 17.0096L80.6758 14.9908ZM79.7963 15.8275C79.3982 16.0355 78.9163 16.1602 78.3064 16.1602V20.1602C79.4884 20.1602 80.6173 19.9116 81.6484 19.3729L79.7963 15.8275ZM78.3064 17.4402C79.3004 17.4402 80.2069 17.0471 80.881 16.2981L77.9078 13.6223C77.9364 13.5905 78.0001 13.534 78.0991 13.4904C78.1973 13.4471 78.2759 13.4402 78.3064 13.4402V17.4402ZM80.8786 16.3008C81.6139 15.4867 81.8424 14.4733 81.8424 13.5522H77.8424C77.8424 13.6967 77.8242 13.7549 77.8245 13.7538C77.8251 13.7519 77.8307 13.7352 77.8454 13.709C77.8603 13.6823 77.8817 13.6511 77.9102 13.6196L80.8786 16.3008ZM81.8424 13.5522C81.8424 12.6362 81.6159 11.6092 80.8565 10.7956L77.9323 13.5249C77.8981 13.4883 77.8722 13.4516 77.8539 13.4195C77.8359 13.388 77.8283 13.3665 77.8265 13.3609C77.8249 13.3559 77.829 13.3671 77.8335 13.3992C77.838 13.4314 77.8424 13.4814 77.8424 13.5522H81.8424ZM80.881 10.8223C80.2176 10.0852 79.3218 9.68022 78.3224 9.68022V13.6802C78.2796 13.6802 78.1938 13.6707 78.093 13.6256C77.9927 13.5807 77.9317 13.5247 77.9078 13.4981L80.881 10.8223ZM78.3224 9.68022C77.3229 9.68022 76.4272 10.0852 75.7638 10.8223L78.737 13.4981C78.7131 13.5247 78.6521 13.5807 78.5517 13.6256C78.4509 13.6707 78.3652 13.6802 78.3224 13.6802V9.68022ZM75.7638 10.8223C75.0309 11.6366 74.8184 12.653 74.8184 13.5522H78.8184C78.8184 13.4785 78.8228 13.4252 78.8276 13.3895C78.8324 13.3539 78.8371 13.3392 78.8365 13.341C78.8358 13.3433 78.8296 13.3624 78.813 13.3924C78.7962 13.4231 78.7713 13.46 78.737 13.4981L75.7638 10.8223ZM74.8184 13.5522C74.8184 14.4351 75.0127 15.4506 75.723 16.2701L78.7458 13.6504C78.7817 13.6919 78.8062 13.7304 78.8217 13.7597C78.8368 13.7884 78.8413 13.8044 78.8404 13.8015C78.8394 13.7983 78.8337 13.7776 78.8283 13.7354C78.8229 13.693 78.8184 13.6329 78.8184 13.5522H74.8184ZM75.723 16.2701C76.3942 17.0446 77.3108 17.4402 78.3064 17.4402V13.4402C78.3363 13.4402 78.4207 13.4469 78.5277 13.4948C78.6364 13.5435 78.7092 13.6082 78.7458 13.6504L75.723 16.2701ZM89.9183 18.0482L88.2597 19.1659L88.8543 20.0482H89.9183V18.0482ZM87.4382 14.3682L89.0968 13.2505L85.4382 7.82172V14.3682H87.4382ZM87.4382 18.0482V20.0482H89.4382V18.0482H87.4382ZM84.3023 18.0482H82.3023V20.0482H84.3023V18.0482ZM84.3023 6.20822V4.20822H82.3023V6.20822H84.3023ZM87.4382 6.20822H89.4382V4.20822H87.4382V6.20822ZM87.4382 12.5922H85.4382V18.9034L89.0732 13.7441L87.4382 12.5922ZM89.9183 9.07222V7.07222H88.8808L88.2833 7.92031L89.9183 9.07222ZM93.6783 9.07222L95.2524 10.3059L97.7866 7.07222H93.6783V9.07222ZM90.1423 13.5842L88.5681 12.3505L87.5873 13.602L88.5854 14.8397L90.1423 13.5842ZM93.7422 18.0482V20.0482H97.9245L95.2991 16.7927L93.7422 18.0482ZM91.5768 16.9305L89.0968 13.2505L85.7797 15.4859L88.2597 19.1659L91.5768 16.9305ZM85.4382 14.3682V18.0482H89.4382V14.3682H85.4382ZM87.4382 16.0482H84.3023V20.0482H87.4382V16.0482ZM86.3023 18.0482V6.20822H82.3023V18.0482H86.3023ZM84.3023 8.20822H87.4382V4.20822H84.3023V8.20822ZM85.4382 6.20822V12.5922H89.4382V6.20822H85.4382ZM89.0732 13.7441L91.5532 10.2241L88.2833 7.92031L85.8033 11.4403L89.0732 13.7441ZM89.9183 11.0722H93.6783V7.07222H89.9183V11.0722ZM92.1041 7.83855L88.5681 12.3505L91.7164 14.8179L95.2524 10.3059L92.1041 7.83855ZM88.5854 14.8397L92.1854 19.3037L95.2991 16.7927L91.6991 12.3287L88.5854 14.8397ZM93.7422 16.0482H89.9183V20.0482H93.7422V16.0482ZM96.3096 17.7602L95.5031 19.5904L95.5217 19.5986L95.5404 19.6064L96.3096 17.7602ZM94.8056 16.6402L93.2099 17.8459L93.2249 17.8658L93.2404 17.8853L94.8056 16.6402ZM94.1976 15.0242V13.0242H92.0497L92.2027 15.1667L94.1976 15.0242ZM97.2376 15.0242L99.216 14.7311L98.9632 13.0242H97.2376V15.0242ZM98.9336 14.8642L99.7311 13.0301V13.0301L98.9336 14.8642ZM97.7176 14.5122L98.1593 12.5616L98.1346 12.556L98.1099 12.5511L97.7176 14.5122ZM96.1176 14.0802L95.4154 15.9529L96.1176 14.0802ZM94.9976 13.2962L93.476 14.5941L93.4868 14.6069L93.4979 14.6195L94.9976 13.2962ZM94.9656 10.3842L96.6233 11.5032L96.6297 11.4937L96.636 11.4842L94.9656 10.3842ZM96.2296 9.34422L95.4046 7.52231L95.398 7.52528L95.3915 7.5283L96.2296 9.34422ZM101.03 9.82422L99.728 11.3427V11.3427L101.03 9.82422ZM102.198 12.0962V14.0962H104.438L104.185 11.8704L102.198 12.0962ZM99.3656 12.0962L97.3991 12.4604L97.702 14.0962H99.3656V12.0962ZM98.9816 11.4402L97.7013 12.9767L97.7471 13.0149L97.7952 13.0503L98.9816 11.4402ZM97.6056 11.3442L96.4672 9.69983L96.436 9.72144L96.4056 9.74422L97.6056 11.3442ZM97.7816 12.2402L96.9187 14.0445L96.9512 14.06L96.9842 14.0744L97.7816 12.2402ZM98.9656 12.5762L98.5439 14.5313L98.5488 14.5323L98.9656 12.5762ZM100.582 13.0402L99.8388 14.8972L99.8467 14.9003L99.8545 14.9034L100.582 13.0402ZM101.718 13.8722L100.181 15.1526L100.2 15.1757L100.22 15.1983L101.718 13.8722ZM101.75 16.8162L100.145 15.6228L100.135 15.6362L100.125 15.6498L101.75 16.8162ZM100.454 17.8082L101.233 19.6502L101.241 19.6466L101.25 19.6429L100.454 17.8082ZM98.4856 16.1602C97.8949 16.1602 97.4375 16.0635 97.0789 15.9141L95.5404 19.6064C96.4618 19.9903 97.455 20.1602 98.4856 20.1602V16.1602ZM97.1161 15.93C96.7395 15.7641 96.5146 15.5759 96.3708 15.3952L93.2404 17.8853C93.8434 18.6432 94.621 19.2017 95.5031 19.5904L97.1161 15.93ZM96.4014 15.4346C96.2705 15.2614 96.2075 15.0917 96.1925 14.8817L92.2027 15.1667C92.273 16.1514 92.6154 17.059 93.2099 17.8459L96.4014 15.4346ZM94.1976 17.0242H97.2376V13.0242H94.1976V17.0242ZM95.2592 15.3173C95.3763 16.1078 95.7817 16.8283 96.4752 17.3237L98.8001 14.0688C98.9005 14.1404 99.0055 14.2463 99.0882 14.3853C99.1696 14.522 99.2036 14.6473 99.216 14.7311L95.2592 15.3173ZM96.4752 17.3237C97.102 17.7715 97.8079 17.9362 98.4696 17.9362V13.9362C98.4651 13.9362 98.5024 13.9357 98.5679 13.9546C98.6365 13.9744 98.7187 14.0106 98.8001 14.0688L96.4752 17.3237ZM98.4696 17.9362C98.9825 17.9362 99.6412 17.8315 100.24 17.4037L97.9151 14.1488C98.2154 13.9343 98.4687 13.9362 98.4696 13.9362V17.9362ZM100.24 17.4037C100.869 16.9547 101.302 16.2318 101.302 15.3602H97.3016C97.3016 15.143 97.3522 14.8901 97.4847 14.644C97.6144 14.4031 97.782 14.2438 97.9151 14.1488L100.24 17.4037ZM101.302 15.3602C101.302 14.859 101.156 14.3346 100.816 13.8765C100.492 13.4405 100.081 13.1823 99.7311 13.0301L98.1362 16.6984C98.0314 16.6528 97.8043 16.5306 97.6034 16.2599C97.3862 15.9671 97.3016 15.6374 97.3016 15.3602H101.302ZM99.7311 13.0301C99.3017 12.8434 98.7395 12.693 98.1593 12.5616L97.276 16.4628C97.5333 16.5211 97.7357 16.5728 97.8895 16.6173C97.9658 16.6394 98.0247 16.6582 98.0686 16.6733C98.0902 16.6807 98.1067 16.6868 98.1185 16.6913C98.1243 16.6935 98.1287 16.6953 98.1318 16.6965C98.1348 16.6978 98.1362 16.6984 98.1362 16.6984L99.7311 13.0301ZM98.1099 12.5511C97.5344 12.436 97.113 12.3175 96.8199 12.2076L95.4154 15.9529C95.9756 16.163 96.6209 16.3325 97.3254 16.4734L98.1099 12.5511ZM96.8199 12.2076C96.7188 12.1697 96.6142 12.1055 96.4973 11.973L93.4979 14.6195C94.021 15.2123 94.6631 15.6708 95.4154 15.9529L96.8199 12.2076ZM96.5193 11.9983C96.5338 12.0153 96.5446 12.0318 96.5517 12.0448C96.5586 12.0575 96.5594 12.0622 96.5571 12.0549C96.552 12.0389 96.5336 11.9695 96.5336 11.8242H92.5336C92.5336 12.7742 92.7756 13.773 93.476 14.5941L96.5193 11.9983ZM96.5336 11.8242C96.5336 11.6744 96.5668 11.5869 96.6233 11.5032L93.3079 9.26527C92.7885 10.0349 92.5336 10.9074 92.5336 11.8242H96.5336ZM96.636 11.4842C96.6866 11.4073 96.7945 11.2863 97.0677 11.1601L95.3915 7.5283C94.5555 7.91417 93.8207 8.48643 93.2953 9.28424L96.636 11.4842ZM97.0546 11.1661C97.3004 11.0548 97.6822 10.9602 98.2616 10.9602V6.96022C97.2624 6.96022 96.2895 7.12161 95.4046 7.52231L97.0546 11.1661ZM98.2616 10.9602C99.1149 10.9602 99.5224 11.1665 99.728 11.3427L102.331 8.30571C101.193 7.32997 99.755 6.96022 98.2616 6.96022V10.9602ZM99.728 11.3427C99.989 11.5664 100.157 11.8483 100.21 12.322L104.185 11.8704C104.025 10.4668 103.414 9.23402 102.331 8.3057L99.728 11.3427ZM102.198 10.0962H99.3656V14.0962H102.198V10.0962ZM101.332 11.732C101.203 11.0321 100.846 10.3295 100.168 9.8301L97.7952 13.0503C97.6764 12.9627 97.576 12.8502 97.5036 12.7266C97.4339 12.6076 97.4081 12.5092 97.3991 12.4604L101.332 11.732ZM100.262 9.90378C99.6086 9.3593 98.8437 9.20022 98.1976 9.20022V13.2002C98.2129 13.2002 97.9706 13.2011 97.7013 12.9767L100.262 9.90378ZM98.1976 9.20022C97.7324 9.20022 97.0725 9.28078 96.4672 9.69983L98.744 12.9886C98.5751 13.1055 98.4226 13.1571 98.3303 13.1796C98.2403 13.2015 98.1896 13.2002 98.1976 13.2002V9.20022ZM96.4056 9.74422C95.7362 10.2463 95.4136 10.9929 95.4136 11.7442H99.4136C99.4136 11.9124 99.3809 12.1396 99.2647 12.3817C99.1464 12.6281 98.9772 12.8155 98.8056 12.9442L96.4056 9.74422ZM95.4136 11.7442C95.4136 12.9526 96.2074 13.7043 96.9187 14.0445L98.6445 10.4359C98.725 10.4744 98.9267 10.5871 99.1118 10.8365C99.316 11.1117 99.4136 11.4384 99.4136 11.7442H95.4136ZM96.9842 14.0744C97.4209 14.2642 97.978 14.4092 98.544 14.5313L99.3873 10.6212C99.1435 10.5686 98.9524 10.5213 98.8076 10.4802C98.7359 10.4598 98.6809 10.4425 98.6403 10.4286C98.6202 10.4218 98.6051 10.4163 98.5944 10.4122C98.5837 10.4081 98.5788 10.406 98.5791 10.4061L96.9842 14.0744ZM98.5488 14.5323C99.1328 14.6568 99.5531 14.7829 99.8388 14.8972L101.324 11.1833C100.757 10.9562 100.1 10.773 99.3825 10.6201L98.5488 14.5323ZM99.8545 14.9034C99.9568 14.9433 100.063 15.0107 100.181 15.1526L103.254 12.5918C102.732 11.9657 102.081 11.4785 101.309 11.1771L99.8545 14.9034ZM100.22 15.1983C100.189 15.1625 100.182 15.1365 100.186 15.1508C100.193 15.1717 100.214 15.2494 100.214 15.4082H104.214C104.214 14.4212 103.958 13.3851 103.215 12.5461L100.22 15.1983ZM100.214 15.4082C100.214 15.5048 100.195 15.5549 100.145 15.6228L103.355 18.0096C103.923 17.2456 104.214 16.357 104.214 15.4082H100.214ZM100.125 15.6498C100.076 15.7177 99.959 15.8427 99.6574 15.9735L101.25 19.6429C102.079 19.2831 102.826 18.7467 103.374 17.9826L100.125 15.6498ZM99.6743 15.9663C99.4209 16.0735 99.0418 16.1602 98.4856 16.1602V20.1602C99.4442 20.1602 100.377 20.0123 101.233 19.6502L99.6743 15.9663Z" fill="white" mask="url(#path-1-outside-1_92_1350)"/>
<path d="M21.167 29.0482V65.5476L33.389 70.1415V66.5162C29.951 66.0321 26.5042 65.2171 23.836 62.4769L25.8985 60.5302C27.7547 62.4362 30.3339 63.1278 33.2745 63.5959L29.2736 30.8584C26.622 30.3611 23.9014 29.8156 21.167 29.0482ZM81.8379 29.0527C71.8803 31.6698 60.7008 29.0681 52.6242 39.7084V71.1291C55.6484 66.7428 59.5668 64.9799 63.4285 64.1276C68.6097 62.9835 73.5391 63.0497 77.4074 59.9706L79.2025 62.157C74.4273 65.9584 68.7756 65.8264 64.0536 66.8689C59.5781 67.8569 55.8071 69.5217 53.0156 76.3769L81.8377 65.5477L81.8379 29.0527ZM32.0471 29.9932L36.2342 64.3248L36.2433 64.4096V97.0482L39.2897 91.1376L42.4167 96.8789V67.2406L38.1203 31.2301L32.0471 29.9932ZM41.2854 33.6422L45.1954 66.4127C45.8489 66.7659 46.4717 67.1717 47.0574 67.6259C48.0431 68.3929 48.9536 69.3353 49.7691 70.4804V39.0547C47.4017 36.4252 44.5135 34.7923 41.2854 33.6422ZM15.5 33.7695V69.855L33.3892 76.3299V73.3346L18.3551 67.8941V33.7695H15.5ZM84.6451 33.774V67.8939L51.5024 79.8852L45.2722 77.6326V83.3927C48.8181 84.601 54.1451 84.4179 58.4491 83.012V80.3693L87.5 69.8549V33.7741L84.6451 33.774ZM45.2719 69.8173V74.6043L49.483 76.1888C48.4075 73.0519 46.9523 71.1238 45.2911 69.8313C45.285 69.8268 45.2782 69.8221 45.2719 69.8173Z" fill="#810EA7"/>
<path d="M72.5037 47.4085C72.245 47.0685 71.93 46.7738 71.6376 46.4791C70.884 45.7991 70.0291 45.3118 69.3093 44.5977C67.6333 42.943 67.2621 40.2116 68.3307 38.1149C67.2621 38.3756 66.3286 38.9649 65.53 39.6109C62.6167 41.9683 61.4695 46.1278 62.8417 49.6979C62.8867 49.8112 62.9317 49.9246 62.9317 50.0719C62.9317 50.3212 62.763 50.5479 62.538 50.6386C62.2793 50.7519 62.0094 50.6839 61.7956 50.5026C61.7314 50.4491 61.678 50.3837 61.6382 50.3099C60.3672 48.6892 60.1647 46.3658 61.0195 44.5071C59.1411 46.0484 58.1176 48.6552 58.2638 51.1146C58.3313 51.6813 58.3988 52.248 58.59 52.8146C58.7475 53.4947 59.0511 54.1747 59.3886 54.7754C60.6034 56.7361 62.7067 58.1415 64.9676 58.4248C67.3746 58.7308 69.9504 58.2888 71.7951 56.6114C73.8534 54.73 74.5733 51.7153 73.516 49.1312L73.3698 48.8365C73.1336 48.3152 72.5037 47.4085 72.5037 47.4085ZM68.9493 54.5487C68.6344 54.8207 68.117 55.1154 67.7121 55.2287C66.4523 55.6821 65.1925 55.0474 64.4502 54.2993C65.7887 53.982 66.5873 52.9846 66.8235 51.9759C67.0147 51.0693 66.6548 50.3212 66.5085 49.4485C66.3736 48.6098 66.3961 47.8958 66.6997 47.1138C66.9135 47.5445 67.1384 47.9752 67.4084 48.3152C68.2745 49.4485 69.6355 49.9472 69.9279 51.4886C69.9729 51.6473 69.9954 51.8059 69.9954 51.9759C70.0291 52.9053 69.6242 53.9253 68.9493 54.5487Z" fill="white"/>
<path d="M45.8669 69.0136L45.8647 69.012L45.8631 69.0109M45.8669 69.0136L45.8629 69.0107C45.8627 69.0106 45.8628 69.0106 45.8631 69.0109M45.8669 69.0136C45.8651 69.0123 45.8637 69.0113 45.8631 69.0109M45.8669 69.0136L45.8631 69.0109M21.4373 28.0854L20.167 27.7289V29.0482V65.5476V66.24L20.8152 66.4836L33.0372 71.0776L34.389 71.5857V70.1415V66.5162V65.6471L33.5285 65.526C30.467 65.0949 27.6048 64.4189 25.2972 62.4728L25.9093 61.895C27.9218 63.5434 30.4839 64.1643 33.1173 64.5835L34.4281 64.7922L34.2671 63.4746L30.2662 30.7371L30.1774 30.0105L29.4579 29.8756C26.8118 29.3793 24.1271 28.8403 21.4373 28.0854ZM82.8379 29.0527L82.8379 27.756L81.5837 28.0856C79.1709 28.7197 76.6687 29.0416 74.0961 29.3317C73.7626 29.3694 73.4278 29.4064 73.0917 29.4437C70.8562 29.6913 68.5704 29.9445 66.3301 30.3911C61.1226 31.4295 56.057 33.532 51.8277 39.1038L51.6242 39.3718V39.7084V71.1291V74.3413L53.4475 71.6967C56.2863 67.5792 59.9466 65.9201 63.644 65.1041L63.6441 65.104C64.9081 64.8249 66.1615 64.6186 67.4145 64.4155L67.5831 64.3882C68.7713 64.1958 69.9639 64.0026 71.1217 63.7521C73.2528 63.2911 75.3358 62.6226 77.2353 61.3369L77.7626 61.9791C75.7621 63.3519 73.6055 64.0838 71.3931 64.5709C70.1296 64.8491 68.8623 65.0447 67.5903 65.2389L67.4924 65.2538C66.264 65.4413 65.0253 65.6303 63.838 65.8924C61.5483 66.3979 59.3216 67.0998 57.3008 68.6244C55.272 70.1551 53.5353 72.4492 52.0895 75.9997L51.2272 78.1171L53.3673 77.313L82.1894 66.4838L82.8377 66.2403V65.5477L82.8379 29.0527ZM32.2466 29.0133L30.8864 28.7363L31.0544 30.1143L35.2407 64.4392L35.2433 64.4635V97.0482L37.1322 97.5063L39.3141 93.2731L41.5385 97.3572L43.4167 96.8789V67.2406V67.1811L43.4096 67.1221L39.1133 31.1116L39.0277 30.3944L38.3199 30.2502L32.2466 29.0133ZM41.621 32.7002L40.1013 32.1588L40.2924 33.7607L44.2024 66.5311L44.2638 67.0459L44.7199 67.2924C45.325 67.6194 45.9015 67.995 46.4435 68.4153C47.35 69.1207 48.1936 69.992 48.9546 71.0605L50.7691 73.6084V70.4804V39.0547V38.6709L50.5123 38.3856C48.0036 35.5991 44.9565 33.8885 41.621 32.7002ZM15.5 32.7695H14.5V33.7695V69.855V70.5566L15.1597 70.7954L33.0489 77.2702L34.3892 77.7554V76.3299V73.3346V72.633L33.7295 72.3943L19.3551 67.1925V33.7695V32.7695H18.3551H15.5ZM84.6451 32.774L83.6451 32.7739V33.774V67.1923L51.5023 78.8218L45.6122 76.6922L44.2722 76.2077V77.6326V83.3927V84.1084L44.9497 84.3393C48.7468 85.6332 54.3016 85.4188 58.7596 83.9626L59.4491 83.7374V83.012V81.0708L87.8403 70.7952L88.5 70.5564V69.8549V33.7741V32.7742L87.5001 32.7741L84.6451 32.774ZM45.8716 69.0169L44.2719 67.7875V69.8173V74.6043V75.2965L44.9197 75.5402L49.1308 77.1247L51.1173 77.8722L50.4289 75.8645C49.3005 72.5732 47.7428 70.4719 45.9053 69.0421L45.8955 69.0344L45.8855 69.0271L45.8716 69.0169Z" stroke="white" stroke-width="2"/>
</svg>
