<svg width="18" height="18" viewBox="0 0 18 18" fill="none" xmlns="http://www.w3.org/2000/svg">
<path d="M12.5 11.255H11.71L11.43 10.985C12.4439 9.80902 13.0011 8.30769 13 6.755C13 5.46942 12.6188 4.21271 11.9046 3.14379C11.1903 2.07487 10.1752 1.24175 8.98744 0.749783C7.79973 0.257814 6.49279 0.129092 5.23192 0.379896C3.97104 0.6307 2.81285 1.24976 1.90381 2.15881C0.994767 3.06785 0.375703 4.22604 0.124899 5.48691C-0.125905 6.74779 0.00281635 8.05472 0.494786 9.24244C0.986756 10.4302 1.81988 11.4453 2.8888 12.1596C3.95772 12.8738 5.21442 13.255 6.5 13.255C8.11 13.255 9.59 12.665 10.73 11.685L11 11.965V12.755L16 17.745L17.49 16.255L12.5 11.255ZM6.5 11.255C4.01 11.255 2 9.245 2 6.755C2 4.265 4.01 2.255 6.5 2.255C8.99 2.255 11 4.265 11 6.755C11 9.245 8.99 11.255 6.5 11.255Z" fill="#810EA7"/>
</svg>
