<svg width="27" height="29" viewBox="0 0 27 29" fill="none" xmlns="http://www.w3.org/2000/svg">
<path fill-rule="evenodd" clip-rule="evenodd" d="M12.4763 0.201044C13.1363 -0.0463848 13.8637 -0.0463848 14.5238 0.201044L24.7321 4.02917C25.2882 4.23761 25.7674 4.61083 26.1056 5.09894C26.4439 5.58704 26.6251 6.16677 26.625 6.76063V14.5817C26.6251 17.0192 25.9463 19.4085 24.6649 21.482C23.3835 23.5555 21.5499 25.2312 19.3698 26.3213L14.4785 28.7654C14.1747 28.9174 13.8397 28.9965 13.5 28.9965C13.1603 28.9965 12.8253 28.9174 12.5215 28.7654L7.63021 26.3198C5.45006 25.2297 3.61654 23.554 2.3351 21.4805C1.05367 19.4071 0.374948 17.0177 0.375001 14.5802V6.76209C0.37463 6.16798 0.555696 5.58793 0.893975 5.09954C1.23225 4.61114 1.71161 4.2377 2.26792 4.02917L12.4763 0.201044ZM14.9583 14.1092C15.5143 13.7881 15.9489 13.2926 16.1946 12.6994C16.4402 12.1063 16.4833 11.4486 16.3172 10.8284C16.151 10.2083 15.7848 9.66028 15.2755 9.26942C14.7661 8.87857 14.142 8.6667 13.5 8.66667C12.858 8.6667 12.2339 8.87857 11.7245 9.26942C11.2152 9.66028 10.849 10.2083 10.6828 10.8284C10.5167 11.4486 10.5598 12.1063 10.8055 12.6994C11.0511 13.2926 11.4857 13.7881 12.0417 14.1092V18.875C12.0417 19.2618 12.1953 19.6327 12.4688 19.9062C12.7423 20.1797 13.1132 20.3333 13.5 20.3333C13.8868 20.3333 14.2577 20.1797 14.5312 19.9062C14.8047 19.6327 14.9583 19.2618 14.9583 18.875V14.1092Z" fill="#810EA7"/>
</svg>
