<svg width="24" height="22" viewBox="0 0 24 22" fill="none" xmlns="http://www.w3.org/2000/svg">
<path d="M10.5044 2.37293C6.56741 4.89293 4.59941 7.92993 4.59941 11.4799C4.59941 12.5849 4.79241 13.1369 5.17641 13.1369L5.57241 13.0299C5.88441 12.9099 6.13541 12.8499 6.32841 12.8499C7.45541 12.8499 8.39841 13.2599 9.15341 14.0799C9.90941 14.8999 10.2874 15.9099 10.2874 17.1159C10.2874 18.2729 9.87741 19.2559 9.06241 20.0629C8.24641 20.8699 7.26241 21.2729 6.11041 21.2729C4.50241 21.2729 3.17541 20.6129 2.13041 19.2899C1.08741 17.9699 0.566406 16.3099 0.566406 14.3129C0.566406 12.0529 1.00841 9.98593 1.89641 8.10993C2.78641 6.23493 4.14041 4.53993 5.96441 3.02493C7.78841 1.51093 8.95241 0.75293 9.45641 0.75293C9.79241 0.75293 10.0684 0.91493 10.2844 1.23893C10.5004 1.56193 10.6084 1.84393 10.6084 2.08393L10.5014 2.37193L10.5044 2.37293ZM23.4644 2.37293C19.5274 4.89293 17.5604 7.92893 17.5604 11.4809C17.5604 12.5859 17.7534 13.1379 18.1374 13.1379L18.5334 13.0309C18.8454 12.9109 19.0964 12.8509 19.2894 12.8509C20.3924 12.8509 21.3294 13.2609 22.0964 14.0809C22.8664 14.9009 23.2484 15.9109 23.2484 17.1169C23.2484 18.2739 22.8384 19.2569 22.0234 20.0639C21.2074 20.8709 20.2234 21.2739 19.0714 21.2739C17.4634 21.2739 16.1364 20.6139 15.0914 19.2909C14.0484 17.9709 13.5274 16.3109 13.5274 14.3139C13.5274 12.0299 13.9754 9.94393 14.8774 8.05793C15.7774 6.17093 17.1324 4.48093 18.9444 2.99093C20.7594 1.49993 21.9164 0.75393 22.4194 0.75393C22.7564 0.75393 23.0324 0.91593 23.2494 1.23993C23.4644 1.56393 23.5724 1.84593 23.5724 2.08593L23.4644 2.37293Z" fill="#810EA7"/>
</svg>
